<?xml version="1.0" standalone="no"?>
 <!DOCTYPE svg PUBLIC "-//W3C//DTD SVG 1.1//EN" 
 "http://www.w3.org/Graphics/SVG/1.1/DTD/svg11.dtd"> 
<svg xmlns="http://www.w3.org/2000/svg" version="1.1" 
    width="29.7002cm" height="21.0007cm" viewBox="0 0 116930 82680 ">
<title>SVG Picture created as blinkr-brd.svg date 2017/07/02 21:11:05 </title>
  <desc>Picture generated by PCBNEW </desc>
<g style="fill:#000000; fill-opacity:1;stroke:#000000; stroke-opacity:1;
stroke-linecap:round; stroke-linejoin:round; "
 transform="translate(0 0) scale(1 1)">
</g>
<g style="fill:#000000; fill-opacity:0.0; 
stroke:#000000; stroke-width:-0.000393701; stroke-opacity:1; 
stroke-linecap:round; stroke-linejoin:round;">
</g>
<g style="fill:#000000; fill-opacity:0.0; 
stroke:#000000; stroke-width:39.3701; stroke-opacity:1; 
stroke-linecap:round; stroke-linejoin:round;">
</g>
<g style="fill:#000000; fill-opacity:0.0; 
stroke:#000000; stroke-width:59.0551; stroke-opacity:1; 
stroke-linecap:round; stroke-linejoin:round;">
<rect x="69685.9" y="65357.2" width="42519.7" height="12598.4" rx="0" />
</g>
<g style="fill:#000000; fill-opacity:0.0; 
stroke:#000000; stroke-width:39.3701; stroke-opacity:1; 
stroke-linecap:round; stroke-linejoin:round;">
</g>
<g style="fill:#000000; fill-opacity:0.0; 
stroke:#000000; stroke-width:59.0551; stroke-opacity:1; 
stroke-linecap:round; stroke-linejoin:round;">
<rect x="3937.01" y="3937.01" width="109056" height="74806" rx="0" />
</g>
<g style="fill:#000000; fill-opacity:0.0; 
stroke:#000000; stroke-width:39.3701; stroke-opacity:1; 
stroke-linecap:round; stroke-linejoin:round;">
</g>
<g style="fill:#000000; fill-opacity:0.0; 
stroke:#000000; stroke-width:59.0551; stroke-opacity:1; 
stroke-linecap:round; stroke-linejoin:round;">
<rect x="4724.41" y="4724.41" width="107481" height="73231.2" rx="0" />
</g>
<g style="fill:#000000; fill-opacity:0.0; 
stroke:#000000; stroke-width:39.3701; stroke-opacity:1; 
stroke-linecap:round; stroke-linejoin:round;">
</g>
<g style="fill:#000000; fill-opacity:0.0; 
stroke:#000000; stroke-width:59.0551; stroke-opacity:1; 
stroke-linecap:round; stroke-linejoin:round;">
<path d="M23622 4724
L23622 3937
" />
</g>
<g style="fill:#000000; fill-opacity:0.0; 
stroke:#000000; stroke-width:39.3701; stroke-opacity:1; 
stroke-linecap:round; stroke-linejoin:round;">
</g>
<g style="fill:#000000; fill-opacity:0.0; 
stroke:#000000; stroke-width:59.0551; stroke-opacity:1; 
stroke-linecap:round; stroke-linejoin:round;">
<path d="M43307 4724
L43307 3937
" />
</g>
<g style="fill:#000000; fill-opacity:0.0; 
stroke:#000000; stroke-width:39.3701; stroke-opacity:1; 
stroke-linecap:round; stroke-linejoin:round;">
</g>
<g style="fill:#000000; fill-opacity:0.0; 
stroke:#000000; stroke-width:59.0551; stroke-opacity:1; 
stroke-linecap:round; stroke-linejoin:round;">
<path d="M62992 4724
L62992 3937
" />
</g>
<g style="fill:#000000; fill-opacity:0.0; 
stroke:#000000; stroke-width:39.3701; stroke-opacity:1; 
stroke-linecap:round; stroke-linejoin:round;">
</g>
<g style="fill:#000000; fill-opacity:0.0; 
stroke:#000000; stroke-width:59.0551; stroke-opacity:1; 
stroke-linecap:round; stroke-linejoin:round;">
<path d="M82677 4724
L82677 3937
" />
</g>
<g style="fill:#000000; fill-opacity:0.0; 
stroke:#000000; stroke-width:39.3701; stroke-opacity:1; 
stroke-linecap:round; stroke-linejoin:round;">
</g>
<g style="fill:#000000; fill-opacity:0.0; 
stroke:#000000; stroke-width:59.0551; stroke-opacity:1; 
stroke-linecap:round; stroke-linejoin:round;">
<path d="M102362 4724
L102362 3937
" />
</g>
<g style="fill:#000000; fill-opacity:0.0; 
stroke:#000000; stroke-width:39.3701; stroke-opacity:1; 
stroke-linecap:round; stroke-linejoin:round;">
</g>
<g style="fill:#000000; fill-opacity:0.0; 
stroke:#000000; stroke-width:59.0551; stroke-opacity:1; 
stroke-linecap:round; stroke-linejoin:round;">
<path d="M14169 4562
L13877 4562
" />
<path d="M14023 4562
L14023 4050
L13974 4123
L13925 4172
L13877 4196
" />
</g>
<g style="fill:#000000; fill-opacity:0.0; 
stroke:#000000; stroke-width:39.3701; stroke-opacity:1; 
stroke-linecap:round; stroke-linejoin:round;">
</g>
<g style="fill:#000000; fill-opacity:0.0; 
stroke:#000000; stroke-width:59.0551; stroke-opacity:1; 
stroke-linecap:round; stroke-linejoin:round;">
<path d="M33562 4099
L33586 4074
L33635 4050
L33757 4050
L33805 4074
L33830 4099
L33854 4147
L33854 4196
L33830 4269
L33537 4562
L33854 4562
" />
</g>
<g style="fill:#000000; fill-opacity:0.0; 
stroke:#000000; stroke-width:39.3701; stroke-opacity:1; 
stroke-linecap:round; stroke-linejoin:round;">
</g>
<g style="fill:#000000; fill-opacity:0.0; 
stroke:#000000; stroke-width:59.0551; stroke-opacity:1; 
stroke-linecap:round; stroke-linejoin:round;">
<path d="M53222 4050
L53539 4050
L53368 4245
L53442 4245
L53490 4269
L53515 4294
L53539 4342
L53539 4464
L53515 4513
L53490 4537
L53442 4562
L53295 4562
L53247 4537
L53222 4513
" />
</g>
<g style="fill:#000000; fill-opacity:0.0; 
stroke:#000000; stroke-width:39.3701; stroke-opacity:1; 
stroke-linecap:round; stroke-linejoin:round;">
</g>
<g style="fill:#000000; fill-opacity:0.0; 
stroke:#000000; stroke-width:59.0551; stroke-opacity:1; 
stroke-linecap:round; stroke-linejoin:round;">
<path d="M73175 4221
L73175 4562
" />
<path d="M73053 4026
L72932 4391
L73248 4391
" />
</g>
<g style="fill:#000000; fill-opacity:0.0; 
stroke:#000000; stroke-width:39.3701; stroke-opacity:1; 
stroke-linecap:round; stroke-linejoin:round;">
</g>
<g style="fill:#000000; fill-opacity:0.0; 
stroke:#000000; stroke-width:59.0551; stroke-opacity:1; 
stroke-linecap:round; stroke-linejoin:round;">
<path d="M92885 4050
L92641 4050
L92617 4294
L92641 4269
L92690 4245
L92812 4245
L92860 4269
L92885 4294
L92909 4342
L92909 4464
L92885 4513
L92860 4537
L92812 4562
L92690 4562
L92641 4537
L92617 4513
" />
</g>
<g style="fill:#000000; fill-opacity:0.0; 
stroke:#000000; stroke-width:39.3701; stroke-opacity:1; 
stroke-linecap:round; stroke-linejoin:round;">
</g>
<g style="fill:#000000; fill-opacity:0.0; 
stroke:#000000; stroke-width:59.0551; stroke-opacity:1; 
stroke-linecap:round; stroke-linejoin:round;">
<path d="M112545 4050
L112448 4050
L112399 4074
L112375 4099
L112326 4172
L112302 4269
L112302 4464
L112326 4513
L112350 4537
L112399 4562
L112497 4562
L112545 4537
L112570 4513
L112594 4464
L112594 4342
L112570 4294
L112545 4269
L112497 4245
L112399 4245
L112350 4269
L112326 4294
L112302 4342
" />
</g>
<g style="fill:#000000; fill-opacity:0.0; 
stroke:#000000; stroke-width:39.3701; stroke-opacity:1; 
stroke-linecap:round; stroke-linejoin:round;">
</g>
<g style="fill:#000000; fill-opacity:0.0; 
stroke:#000000; stroke-width:59.0551; stroke-opacity:1; 
stroke-linecap:round; stroke-linejoin:round;">
<path d="M23622 77955
L23622 78742
" />
</g>
<g style="fill:#000000; fill-opacity:0.0; 
stroke:#000000; stroke-width:39.3701; stroke-opacity:1; 
stroke-linecap:round; stroke-linejoin:round;">
</g>
<g style="fill:#000000; fill-opacity:0.0; 
stroke:#000000; stroke-width:59.0551; stroke-opacity:1; 
stroke-linecap:round; stroke-linejoin:round;">
<path d="M43307 77955
L43307 78742
" />
</g>
<g style="fill:#000000; fill-opacity:0.0; 
stroke:#000000; stroke-width:39.3701; stroke-opacity:1; 
stroke-linecap:round; stroke-linejoin:round;">
</g>
<g style="fill:#000000; fill-opacity:0.0; 
stroke:#000000; stroke-width:59.0551; stroke-opacity:1; 
stroke-linecap:round; stroke-linejoin:round;">
<path d="M62992 77955
L62992 78742
" />
</g>
<g style="fill:#000000; fill-opacity:0.0; 
stroke:#000000; stroke-width:39.3701; stroke-opacity:1; 
stroke-linecap:round; stroke-linejoin:round;">
</g>
<g style="fill:#000000; fill-opacity:0.0; 
stroke:#000000; stroke-width:59.0551; stroke-opacity:1; 
stroke-linecap:round; stroke-linejoin:round;">
<path d="M82677 77955
L82677 78742
" />
</g>
<g style="fill:#000000; fill-opacity:0.0; 
stroke:#000000; stroke-width:39.3701; stroke-opacity:1; 
stroke-linecap:round; stroke-linejoin:round;">
</g>
<g style="fill:#000000; fill-opacity:0.0; 
stroke:#000000; stroke-width:59.0551; stroke-opacity:1; 
stroke-linecap:round; stroke-linejoin:round;">
<path d="M102362 77955
L102362 78742
" />
</g>
<g style="fill:#000000; fill-opacity:0.0; 
stroke:#000000; stroke-width:39.3701; stroke-opacity:1; 
stroke-linecap:round; stroke-linejoin:round;">
</g>
<g style="fill:#000000; fill-opacity:0.0; 
stroke:#000000; stroke-width:59.0551; stroke-opacity:1; 
stroke-linecap:round; stroke-linejoin:round;">
<path d="M14169 78580
L13877 78580
" />
<path d="M14023 78580
L14023 78069
L13974 78142
L13925 78190
L13877 78215
" />
</g>
<g style="fill:#000000; fill-opacity:0.0; 
stroke:#000000; stroke-width:39.3701; stroke-opacity:1; 
stroke-linecap:round; stroke-linejoin:round;">
</g>
<g style="fill:#000000; fill-opacity:0.0; 
stroke:#000000; stroke-width:59.0551; stroke-opacity:1; 
stroke-linecap:round; stroke-linejoin:round;">
<path d="M33562 78117
L33586 78093
L33635 78069
L33757 78069
L33805 78093
L33830 78117
L33854 78166
L33854 78215
L33830 78288
L33537 78580
L33854 78580
" />
</g>
<g style="fill:#000000; fill-opacity:0.0; 
stroke:#000000; stroke-width:39.3701; stroke-opacity:1; 
stroke-linecap:round; stroke-linejoin:round;">
</g>
<g style="fill:#000000; fill-opacity:0.0; 
stroke:#000000; stroke-width:59.0551; stroke-opacity:1; 
stroke-linecap:round; stroke-linejoin:round;">
<path d="M53222 78069
L53539 78069
L53368 78263
L53442 78263
L53490 78288
L53515 78312
L53539 78361
L53539 78483
L53515 78532
L53490 78556
L53442 78580
L53295 78580
L53247 78556
L53222 78532
" />
</g>
<g style="fill:#000000; fill-opacity:0.0; 
stroke:#000000; stroke-width:39.3701; stroke-opacity:1; 
stroke-linecap:round; stroke-linejoin:round;">
</g>
<g style="fill:#000000; fill-opacity:0.0; 
stroke:#000000; stroke-width:59.0551; stroke-opacity:1; 
stroke-linecap:round; stroke-linejoin:round;">
<path d="M73175 78239
L73175 78580
" />
<path d="M73053 78044
L72932 78410
L73248 78410
" />
</g>
<g style="fill:#000000; fill-opacity:0.0; 
stroke:#000000; stroke-width:39.3701; stroke-opacity:1; 
stroke-linecap:round; stroke-linejoin:round;">
</g>
<g style="fill:#000000; fill-opacity:0.0; 
stroke:#000000; stroke-width:59.0551; stroke-opacity:1; 
stroke-linecap:round; stroke-linejoin:round;">
<path d="M92885 78069
L92641 78069
L92617 78312
L92641 78288
L92690 78263
L92812 78263
L92860 78288
L92885 78312
L92909 78361
L92909 78483
L92885 78532
L92860 78556
L92812 78580
L92690 78580
L92641 78556
L92617 78532
" />
</g>
<g style="fill:#000000; fill-opacity:0.0; 
stroke:#000000; stroke-width:39.3701; stroke-opacity:1; 
stroke-linecap:round; stroke-linejoin:round;">
</g>
<g style="fill:#000000; fill-opacity:0.0; 
stroke:#000000; stroke-width:59.0551; stroke-opacity:1; 
stroke-linecap:round; stroke-linejoin:round;">
<path d="M112545 78069
L112448 78069
L112399 78093
L112375 78117
L112326 78190
L112302 78288
L112302 78483
L112326 78532
L112350 78556
L112399 78580
L112497 78580
L112545 78556
L112570 78532
L112594 78483
L112594 78361
L112570 78312
L112545 78288
L112497 78263
L112399 78263
L112350 78288
L112326 78312
L112302 78361
" />
</g>
<g style="fill:#000000; fill-opacity:0.0; 
stroke:#000000; stroke-width:39.3701; stroke-opacity:1; 
stroke-linecap:round; stroke-linejoin:round;">
</g>
<g style="fill:#000000; fill-opacity:0.0; 
stroke:#000000; stroke-width:59.0551; stroke-opacity:1; 
stroke-linecap:round; stroke-linejoin:round;">
<path d="M3937 23622
L4724 23622
" />
</g>
<g style="fill:#000000; fill-opacity:0.0; 
stroke:#000000; stroke-width:39.3701; stroke-opacity:1; 
stroke-linecap:round; stroke-linejoin:round;">
</g>
<g style="fill:#000000; fill-opacity:0.0; 
stroke:#000000; stroke-width:59.0551; stroke-opacity:1; 
stroke-linecap:round; stroke-linejoin:round;">
<path d="M3937 43307
L4724 43307
" />
</g>
<g style="fill:#000000; fill-opacity:0.0; 
stroke:#000000; stroke-width:39.3701; stroke-opacity:1; 
stroke-linecap:round; stroke-linejoin:round;">
</g>
<g style="fill:#000000; fill-opacity:0.0; 
stroke:#000000; stroke-width:59.0551; stroke-opacity:1; 
stroke-linecap:round; stroke-linejoin:round;">
<path d="M3937 62992
L4724 62992
" />
</g>
<g style="fill:#000000; fill-opacity:0.0; 
stroke:#000000; stroke-width:39.3701; stroke-opacity:1; 
stroke-linecap:round; stroke-linejoin:round;">
</g>
<g style="fill:#000000; fill-opacity:0.0; 
stroke:#000000; stroke-width:59.0551; stroke-opacity:1; 
stroke-linecap:round; stroke-linejoin:round;">
<path d="M4208 13864
L4452 13864
" />
<path d="M4160 14011
L4330 13499
L4501 14011
" />
</g>
<g style="fill:#000000; fill-opacity:0.0; 
stroke:#000000; stroke-width:39.3701; stroke-opacity:1; 
stroke-linecap:round; stroke-linejoin:round;">
</g>
<g style="fill:#000000; fill-opacity:0.0; 
stroke:#000000; stroke-width:59.0551; stroke-opacity:1; 
stroke-linecap:round; stroke-linejoin:round;">
<path d="M4367 33428
L4440 33452
L4464 33476
L4489 33525
L4489 33598
L4464 33647
L4440 33671
L4391 33696
L4196 33696
L4196 33184
L4367 33184
L4416 33208
L4440 33233
L4464 33281
L4464 33330
L4440 33379
L4416 33403
L4367 33428
L4196 33428
" />
</g>
<g style="fill:#000000; fill-opacity:0.0; 
stroke:#000000; stroke-width:39.3701; stroke-opacity:1; 
stroke-linecap:round; stroke-linejoin:round;">
</g>
<g style="fill:#000000; fill-opacity:0.0; 
stroke:#000000; stroke-width:59.0551; stroke-opacity:1; 
stroke-linecap:round; stroke-linejoin:round;">
<path d="M4489 53332
L4464 53356
L4391 53381
L4342 53381
L4269 53356
L4221 53308
L4196 53259
L4172 53161
L4172 53088
L4196 52991
L4221 52942
L4269 52893
L4342 52869
L4391 52869
L4464 52893
L4489 52918
" />
</g>
<g style="fill:#000000; fill-opacity:0.0; 
stroke:#000000; stroke-width:39.3701; stroke-opacity:1; 
stroke-linecap:round; stroke-linejoin:round;">
</g>
<g style="fill:#000000; fill-opacity:0.0; 
stroke:#000000; stroke-width:59.0551; stroke-opacity:1; 
stroke-linecap:round; stroke-linejoin:round;">
<path d="M4196 73066
L4196 72554
L4318 72554
L4391 72578
L4440 72627
L4464 72676
L4489 72773
L4489 72846
L4464 72944
L4440 72993
L4391 73041
L4318 73066
L4196 73066
" />
</g>
<g style="fill:#000000; fill-opacity:0.0; 
stroke:#000000; stroke-width:39.3701; stroke-opacity:1; 
stroke-linecap:round; stroke-linejoin:round;">
</g>
<g style="fill:#000000; fill-opacity:0.0; 
stroke:#000000; stroke-width:59.0551; stroke-opacity:1; 
stroke-linecap:round; stroke-linejoin:round;">
<path d="M112992 23622
L112205 23622
" />
</g>
<g style="fill:#000000; fill-opacity:0.0; 
stroke:#000000; stroke-width:39.3701; stroke-opacity:1; 
stroke-linecap:round; stroke-linejoin:round;">
</g>
<g style="fill:#000000; fill-opacity:0.0; 
stroke:#000000; stroke-width:59.0551; stroke-opacity:1; 
stroke-linecap:round; stroke-linejoin:round;">
<path d="M112992 43307
L112205 43307
" />
</g>
<g style="fill:#000000; fill-opacity:0.0; 
stroke:#000000; stroke-width:39.3701; stroke-opacity:1; 
stroke-linecap:round; stroke-linejoin:round;">
</g>
<g style="fill:#000000; fill-opacity:0.0; 
stroke:#000000; stroke-width:59.0551; stroke-opacity:1; 
stroke-linecap:round; stroke-linejoin:round;">
<path d="M112992 62992
L112205 62992
" />
</g>
<g style="fill:#000000; fill-opacity:0.0; 
stroke:#000000; stroke-width:39.3701; stroke-opacity:1; 
stroke-linecap:round; stroke-linejoin:round;">
</g>
<g style="fill:#000000; fill-opacity:0.0; 
stroke:#000000; stroke-width:59.0551; stroke-opacity:1; 
stroke-linecap:round; stroke-linejoin:round;">
<path d="M112477 13864
L112721 13864
" />
<path d="M112428 14011
L112599 13499
L112769 14011
" />
</g>
<g style="fill:#000000; fill-opacity:0.0; 
stroke:#000000; stroke-width:39.3701; stroke-opacity:1; 
stroke-linecap:round; stroke-linejoin:round;">
</g>
<g style="fill:#000000; fill-opacity:0.0; 
stroke:#000000; stroke-width:59.0551; stroke-opacity:1; 
stroke-linecap:round; stroke-linejoin:round;">
<path d="M112635 33428
L112708 33452
L112733 33476
L112757 33525
L112757 33598
L112733 33647
L112708 33671
L112660 33696
L112465 33696
L112465 33184
L112635 33184
L112684 33208
L112708 33233
L112733 33281
L112733 33330
L112708 33379
L112684 33403
L112635 33428
L112465 33428
" />
</g>
<g style="fill:#000000; fill-opacity:0.0; 
stroke:#000000; stroke-width:39.3701; stroke-opacity:1; 
stroke-linecap:round; stroke-linejoin:round;">
</g>
<g style="fill:#000000; fill-opacity:0.0; 
stroke:#000000; stroke-width:59.0551; stroke-opacity:1; 
stroke-linecap:round; stroke-linejoin:round;">
<path d="M112757 53332
L112733 53356
L112660 53381
L112611 53381
L112538 53356
L112489 53308
L112465 53259
L112440 53161
L112440 53088
L112465 52991
L112489 52942
L112538 52893
L112611 52869
L112660 52869
L112733 52893
L112757 52918
" />
</g>
<g style="fill:#000000; fill-opacity:0.0; 
stroke:#000000; stroke-width:39.3701; stroke-opacity:1; 
stroke-linecap:round; stroke-linejoin:round;">
</g>
<g style="fill:#000000; fill-opacity:0.0; 
stroke:#000000; stroke-width:59.0551; stroke-opacity:1; 
stroke-linecap:round; stroke-linejoin:round;">
<path d="M112465 73066
L112465 72554
L112587 72554
L112660 72578
L112708 72627
L112733 72676
L112757 72773
L112757 72846
L112733 72944
L112708 72993
L112660 73041
L112587 73066
L112465 73066
" />
</g>
<g style="fill:#000000; fill-opacity:0.0; 
stroke:#000000; stroke-width:39.3701; stroke-opacity:1; 
stroke-linecap:round; stroke-linejoin:round;">
</g>
<g style="fill:#000000; fill-opacity:0.0; 
stroke:#000000; stroke-width:59.0551; stroke-opacity:1; 
stroke-linecap:round; stroke-linejoin:round;">
<path d="M78881 76293
L78881 75703
L79022 75703
L79106 75731
L79162 75787
L79190 75843
L79219 75956
L79219 76040
L79190 76153
L79162 76209
L79106 76265
L79022 76293
L78881 76293
" />
<path d="M79725 76293
L79725 75984
L79697 75928
L79640 75899
L79528 75899
L79472 75928
" />
<path d="M79725 76265
L79669 76293
L79528 76293
L79472 76265
L79444 76209
L79444 76153
L79472 76096
L79528 76068
L79669 76068
L79725 76040
" />
<path d="M79922 75899
L80147 75899
" />
<path d="M80006 75703
L80006 76209
L80034 76265
L80090 76293
L80147 76293
" />
<path d="M80568 76265
L80512 76293
L80400 76293
L80343 76265
L80315 76209
L80315 75984
L80343 75928
L80400 75899
L80512 75899
L80568 75928
L80597 75984
L80597 76040
L80315 76096
" />
<path d="M80850 76237
L80878 76265
L80850 76293
L80822 76265
L80850 76237
L80850 76293
" />
<path d="M80850 75928
L80878 75956
L80850 75984
L80822 75956
L80850 75928
L80850 75984
" />
</g>
<g style="fill:#000000; fill-opacity:0.0; 
stroke:#000000; stroke-width:39.3701; stroke-opacity:1; 
stroke-linecap:round; stroke-linejoin:round;">
</g>
<g style="fill:#000000; fill-opacity:0.0; 
stroke:#000000; stroke-width:59.0551; stroke-opacity:1; 
stroke-linecap:round; stroke-linejoin:round;">
<path d="M69685 76577
L112205 76577
" />
</g>
<g style="fill:#000000; fill-opacity:0.0; 
stroke:#000000; stroke-width:39.3701; stroke-opacity:1; 
stroke-linecap:round; stroke-linejoin:round;">
</g>
<g style="fill:#000000; fill-opacity:0.0; 
stroke:#000000; stroke-width:59.0551; stroke-opacity:1; 
stroke-linecap:round; stroke-linejoin:round;">
<path d="M70220 77395
L70220 76805
" />
<path d="M70557 77395
L70304 77058
" />
<path d="M70557 76805
L70220 77142
" />
<path d="M70810 77395
L70810 77002
" />
<path d="M70810 76805
L70782 76833
L70810 76861
L70838 76833
L70810 76805
L70810 76861
" />
<path d="M71429 77339
L71401 77367
L71316 77395
L71260 77395
L71176 77367
L71120 77311
L71091 77255
L71063 77142
L71063 77058
L71091 76946
L71120 76889
L71176 76833
L71260 76805
L71316 76805
L71401 76833
L71429 76861
" />
<path d="M71935 77395
L71935 77086
L71907 77030
L71851 77002
L71738 77002
L71682 77030
" />
<path d="M71935 77367
L71879 77395
L71738 77395
L71682 77367
L71654 77311
L71654 77255
L71682 77199
L71738 77171
L71879 77171
L71935 77142
" />
<path d="M72469 77395
L72469 76805
" />
<path d="M72469 77367
L72413 77395
L72301 77395
L72244 77367
L72216 77339
L72188 77283
L72188 77114
L72216 77058
L72244 77030
L72301 77002
L72413 77002
L72469 77030
" />
<path d="M73201 77086
L73397 77086
" />
<path d="M73482 77395
L73201 77395
L73201 76805
L73482 76805
" />
<path d="M73735 77339
L73763 77367
L73735 77395
L73707 77367
L73735 77339
L73735 77395
" />
<path d="M74016 77395
L74016 76805
L74157 76805
L74241 76833
L74297 76889
L74325 76946
L74354 77058
L74354 77142
L74325 77255
L74297 77311
L74241 77367
L74157 77395
L74016 77395
" />
<path d="M74607 77339
L74635 77367
L74607 77395
L74579 77367
L74607 77339
L74607 77395
" />
<path d="M74860 77227
L75141 77227
" />
<path d="M74804 77395
L75000 76805
L75197 77395
" />
<path d="M75394 77339
L75422 77367
L75394 77395
L75366 77367
L75394 77339
L75394 77395
" />
<path d="M76575 77395
L76575 76805
" />
<path d="M76631 77171
L76800 77395
" />
<path d="M76800 77002
L76575 77227
" />
<path d="M77053 77395
L77053 77002
" />
<path d="M77053 76805
L77025 76833
L77053 76861
L77081 76833
L77053 76805
L77053 76861
" />
<path d="M77588 77367
L77531 77395
L77419 77395
L77363 77367
L77334 77339
L77306 77283
L77306 77114
L77334 77058
L77363 77030
L77419 77002
L77531 77002
L77588 77030
" />
<path d="M78094 77395
L78094 77086
L78066 77030
L78009 77002
L77897 77002
L77841 77030
" />
<path d="M78094 77367
L78037 77395
L77897 77395
L77841 77367
L77813 77311
L77813 77255
L77841 77199
L77897 77171
L78037 77171
L78094 77142
" />
<path d="M78628 77395
L78628 76805
" />
<path d="M78628 77367
L78572 77395
L78459 77395
L78403 77367
L78375 77339
L78347 77283
L78347 77114
L78375 77058
L78403 77030
L78459 77002
L78572 77002
L78628 77030
" />
<path d="M79612 77002
L79612 77395
" />
<path d="M79472 76777
L79331 77199
L79697 77199
" />
<path d="M79922 77339
L79950 77367
L79922 77395
L79894 77367
L79922 77339
L79922 77395
" />
<path d="M80315 76805
L80372 76805
L80428 76833
L80456 76861
L80484 76917
L80512 77030
L80512 77171
L80484 77283
L80456 77339
L80428 77367
L80372 77395
L80315 77395
L80259 77367
L80231 77339
L80203 77283
L80175 77171
L80175 77030
L80203 76917
L80231 76861
L80259 76833
L80315 76805
" />
<path d="M80765 77339
L80793 77367
L80765 77395
L80737 77367
L80765 77339
L80765 77395
" />
<path d="M81328 76805
L81046 76805
L81018 77086
L81046 77058
L81103 77030
L81243 77030
L81300 77058
L81328 77086
L81356 77142
L81356 77283
L81328 77339
L81300 77367
L81243 77395
L81103 77395
L81046 77367
L81018 77339
" />
<path d="M81609 77171
L82059 77171
" />
<path d="M81834 77395
L81834 76946
" />
<path d="M82593 77395
L82593 76805
" />
<path d="M82593 77367
L82537 77395
L82424 77395
L82368 77367
L82340 77339
L82312 77283
L82312 77114
L82340 77058
L82368 77030
L82424 77002
L82537 77002
L82593 77030
" />
<path d="M82790 77002
L83015 77002
" />
<path d="M82874 77395
L82874 76889
L82903 76833
L82959 76805
L83015 76805
" />
<path d="M83184 77367
L83240 77395
L83352 77395
L83409 77367
L83437 77311
L83437 77283
L83409 77227
L83352 77199
L83268 77199
L83212 77171
L83184 77114
L83184 77086
L83212 77030
L83268 77002
L83352 77002
L83409 77030
" />
<path d="M83943 77002
L83943 77480
L83915 77536
L83887 77564
L83831 77592
L83746 77592
L83690 77564
" />
<path d="M83943 77367
L83887 77395
L83774 77395
L83718 77367
L83690 77339
L83662 77283
L83662 77114
L83690 77058
L83718 77030
L83774 77002
L83887 77002
L83943 77030
" />
<path d="M84534 77395
L84196 77395
" />
<path d="M84365 77395
L84365 76805
L84309 76889
L84252 76946
L84196 76974
" />
<path d="M84787 77171
L85237 77171
" />
<path d="M85771 77002
L85771 77395
" />
<path d="M85630 76777
L85490 77199
L85855 77199
" />
</g>
<g style="fill:#000000; fill-opacity:0.0; 
stroke:#000000; stroke-width:39.3701; stroke-opacity:1; 
stroke-linecap:round; stroke-linejoin:round;">
</g>
<g style="fill:#000000; fill-opacity:0.0; 
stroke:#000000; stroke-width:59.0551; stroke-opacity:1; 
stroke-linecap:round; stroke-linejoin:round;">
<path d="M69685 75396
L112205 75396
" />
</g>
<g style="fill:#000000; fill-opacity:0.0; 
stroke:#000000; stroke-width:39.3701; stroke-opacity:1; 
stroke-linecap:round; stroke-linejoin:round;">
</g>
<g style="fill:#000000; fill-opacity:0.0; 
stroke:#000000; stroke-width:118.11; stroke-opacity:1; 
stroke-linecap:round; stroke-linejoin:round;">
<path d="M104022 76293
L103825 76012
" />
<path d="M103684 76293
L103684 75703
L103909 75703
L103965 75731
L103994 75759
L104022 75815
L104022 75899
L103994 75956
L103965 75984
L103909 76012
L103684 76012
" />
<path d="M104500 76265
L104444 76293
L104331 76293
L104275 76265
L104247 76209
L104247 75984
L104275 75928
L104331 75899
L104444 75899
L104500 75928
L104528 75984
L104528 76040
L104247 76096
" />
<path d="M104725 75899
L104865 76293
L105006 75899
" />
<path d="M105231 76237
L105259 76265
L105231 76293
L105203 76265
L105231 76237
L105231 76293
" />
<path d="M105231 75928
L105259 75956
L105231 75984
L105203 75956
L105231 75928
L105231 75984
" />
</g>
<g style="fill:#000000; fill-opacity:0.0; 
stroke:#000000; stroke-width:39.3701; stroke-opacity:1; 
stroke-linecap:round; stroke-linejoin:round;">
</g>
<g style="fill:#000000; fill-opacity:0.0; 
stroke:#000000; stroke-width:59.0551; stroke-opacity:1; 
stroke-linecap:round; stroke-linejoin:round;">
<path d="M70192 76265
L70276 76293
L70417 76293
L70473 76265
L70501 76237
L70529 76181
L70529 76124
L70501 76068
L70473 76040
L70417 76012
L70304 75984
L70248 75956
L70220 75928
L70192 75871
L70192 75815
L70220 75759
L70248 75731
L70304 75703
L70445 75703
L70529 75731
" />
<path d="M70782 76293
L70782 75899
" />
<path d="M70782 75703
L70754 75731
L70782 75759
L70810 75731
L70782 75703
L70782 75759
" />
<path d="M71007 75899
L71316 75899
L71007 76293
L71316 76293
" />
<path d="M71766 76265
L71710 76293
L71598 76293
L71541 76265
L71513 76209
L71513 75984
L71541 75928
L71598 75899
L71710 75899
L71766 75928
L71795 75984
L71795 76040
L71513 76096
" />
<path d="M72048 76237
L72076 76265
L72048 76293
L72019 76265
L72048 76237
L72048 76293
" />
<path d="M72048 75928
L72076 75956
L72048 75984
L72019 75956
L72048 75928
L72048 75984
" />
<path d="M72751 76124
L73032 76124
" />
<path d="M72694 76293
L72891 75703
L73088 76293
" />
<path d="M73538 75899
L73538 76293
" />
<path d="M73397 75674
L73257 76096
L73622 76096
" />
</g>
<g style="fill:#000000; fill-opacity:0.0; 
stroke:#000000; stroke-width:39.3701; stroke-opacity:1; 
stroke-linecap:round; stroke-linejoin:round;">
</g>
<g style="fill:#000000; fill-opacity:0.0; 
stroke:#000000; stroke-width:59.0551; stroke-opacity:1; 
stroke-linecap:round; stroke-linejoin:round;">
<path d="M103684 77395
L103684 76805
" />
<path d="M104219 77395
L104219 76805
" />
<path d="M104219 77367
L104162 77395
L104050 77395
L103994 77367
L103965 77339
L103937 77283
L103937 77114
L103965 77058
L103994 77030
L104050 77002
L104162 77002
L104219 77030
" />
<path d="M104500 77339
L104528 77367
L104500 77395
L104472 77367
L104500 77339
L104500 77395
" />
<path d="M104500 77030
L104528 77058
L104500 77086
L104472 77058
L104500 77030
L104500 77086
" />
<path d="M105540 77395
L105203 77395
" />
<path d="M105372 77395
L105372 76805
L105315 76889
L105259 76946
L105203 76974
" />
<path d="M106215 76777
L105709 77536
" />
<path d="M106721 77395
L106384 77395
" />
<path d="M106553 77395
L106553 76805
L106496 76889
L106440 76946
L106384 76974
" />
</g>
<g style="fill:#000000; fill-opacity:0.0; 
stroke:#000000; stroke-width:39.3701; stroke-opacity:1; 
stroke-linecap:round; stroke-linejoin:round;">
</g>
<g style="fill:#000000; fill-opacity:0.0; 
stroke:#000000; stroke-width:59.0551; stroke-opacity:1; 
stroke-linecap:round; stroke-linejoin:round;">
<path d="M69685 73821
L112205 73821
" />
</g>
<g style="fill:#000000; fill-opacity:0.0; 
stroke:#000000; stroke-width:39.3701; stroke-opacity:1; 
stroke-linecap:round; stroke-linejoin:round;">
</g>
<g style="fill:#000000; fill-opacity:0.0; 
stroke:#000000; stroke-width:157.48; stroke-opacity:1; 
stroke-linecap:round; stroke-linejoin:round;">
<path d="M70257 74099
L70707 74099
" />
<path d="M70384 74886
L70482 74099
" />
<path d="M70871 74886
L70937 74361
" />
<path d="M70970 74099
L70927 74136
L70960 74174
L71002 74136
L70970 74099
L70960 74174
" />
<path d="M71199 74361
L71499 74361
" />
<path d="M71345 74099
L71260 74774
L71288 74849
L71359 74886
L71434 74886
" />
<path d="M71809 74886
L71738 74849
L71710 74774
L71795 74099
" />
<path d="M72413 74849
L72334 74886
L72184 74886
L72113 74849
L72085 74774
L72123 74474
L72169 74399
L72249 74361
L72399 74361
L72469 74399
L72498 74474
L72488 74549
L72104 74624
" />
<path d="M72793 74811
L72826 74849
L72783 74886
L72751 74849
L72793 74811
L72783 74886
" />
<path d="M72844 74399
L72877 74436
L72835 74474
L72802 74436
L72844 74399
L72835 74474
" />
</g>
<g style="fill:#000000; fill-opacity:0.0; 
stroke:#000000; stroke-width:39.3701; stroke-opacity:1; 
stroke-linecap:round; stroke-linejoin:round;">
</g>
<g style="fill:#000000; fill-opacity:0.0; 
stroke:#000000; stroke-width:59.0551; stroke-opacity:1; 
stroke-linecap:round; stroke-linejoin:round;">
<path d="M70417 73070
L70220 73070
" />
<path d="M70220 73380
L70220 72789
L70501 72789
" />
<path d="M70726 73380
L70726 72986
" />
<path d="M70726 72789
L70698 72817
L70726 72845
L70754 72817
L70726 72789
L70726 72845
" />
<path d="M71091 73380
L71035 73352
L71007 73295
L71007 72789
" />
<path d="M71541 73352
L71485 73380
L71373 73380
L71316 73352
L71288 73295
L71288 73070
L71316 73014
L71373 72986
L71485 72986
L71541 73014
L71570 73070
L71570 73127
L71288 73183
" />
<path d="M71823 73323
L71851 73352
L71823 73380
L71795 73352
L71823 73323
L71823 73380
" />
<path d="M71823 73014
L71851 73042
L71823 73070
L71795 73042
L71823 73014
L71823 73070
" />
<path d="M72554 73380
L72554 72789
" />
<path d="M72554 73014
L72610 72986
L72723 72986
L72779 73014
L72807 73042
L72835 73099
L72835 73267
L72807 73323
L72779 73352
L72723 73380
L72610 73380
L72554 73352
" />
<path d="M73172 73380
L73116 73352
L73088 73295
L73088 72789
" />
<path d="M73397 73380
L73397 72986
" />
<path d="M73397 72789
L73369 72817
L73397 72845
L73426 72817
L73397 72789
L73397 72845
" />
<path d="M73679 72986
L73679 73380
" />
<path d="M73679 73042
L73707 73014
L73763 72986
L73847 72986
L73904 73014
L73932 73070
L73932 73380
" />
<path d="M74213 73380
L74213 72789
" />
<path d="M74269 73155
L74438 73380
" />
<path d="M74438 72986
L74213 73211
" />
<path d="M74691 73380
L74691 72986
" />
<path d="M74691 73099
L74719 73042
L74747 73014
L74804 72986
L74860 72986
" />
<path d="M75057 73323
L75085 73352
L75057 73380
L75028 73352
L75057 73323
L75057 73380
" />
<path d="M75338 73380
L75338 72789
" />
<path d="M75394 73155
L75563 73380
" />
<path d="M75563 72986
L75338 73211
" />
<path d="M75816 73380
L75816 72986
" />
<path d="M75816 72789
L75788 72817
L75816 72845
L75844 72817
L75816 72789
L75816 72845
" />
<path d="M76350 73352
L76294 73380
L76181 73380
L76125 73352
L76097 73323
L76069 73267
L76069 73099
L76097 73042
L76125 73014
L76181 72986
L76294 72986
L76350 73014
" />
<path d="M76856 73380
L76856 73070
L76828 73014
L76772 72986
L76660 72986
L76603 73014
" />
<path d="M76856 73352
L76800 73380
L76660 73380
L76603 73352
L76575 73295
L76575 73239
L76603 73183
L76660 73155
L76800 73155
L76856 73127
" />
<path d="M77391 73380
L77391 72789
" />
<path d="M77391 73352
L77334 73380
L77222 73380
L77166 73352
L77138 73323
L77109 73267
L77109 73099
L77138 73042
L77166 73014
L77222 72986
L77334 72986
L77391 73014
" />
<path d="M77531 73436
L77981 73436
" />
<path d="M78122 72986
L78122 73577
" />
<path d="M78122 73014
L78178 72986
L78291 72986
L78347 73014
L78375 73042
L78403 73099
L78403 73267
L78375 73323
L78347 73352
L78291 73380
L78178 73380
L78122 73352
" />
<path d="M78909 73352
L78853 73380
L78741 73380
L78684 73352
L78656 73323
L78628 73267
L78628 73099
L78656 73042
L78684 73014
L78741 72986
L78853 72986
L78909 73014
" />
<path d="M79162 73380
L79162 72789
" />
<path d="M79162 73014
L79219 72986
L79331 72986
L79387 73014
L79415 73042
L79444 73099
L79444 73267
L79415 73323
L79387 73352
L79331 73380
L79219 73380
L79162 73352
" />
</g>
<g style="fill:#000000; fill-opacity:0.0; 
stroke:#000000; stroke-width:39.3701; stroke-opacity:1; 
stroke-linecap:round; stroke-linejoin:round;">
</g>
<g style="fill:#000000; fill-opacity:0.0; 
stroke:#000000; stroke-width:59.0551; stroke-opacity:1; 
stroke-linecap:round; stroke-linejoin:round;">
<path d="M69685 71459
L112205 71459
" />
</g>
<g style="fill:#000000; fill-opacity:0.0; 
stroke:#000000; stroke-width:39.3701; stroke-opacity:1; 
stroke-linecap:round; stroke-linejoin:round;">
</g>
<g style="fill:#000000; fill-opacity:0.0; 
stroke:#000000; stroke-width:59.0551; stroke-opacity:1; 
stroke-linecap:round; stroke-linejoin:round;">
<path d="M70192 72289
L70276 72317
L70417 72317
L70473 72289
L70501 72260
L70529 72204
L70529 72148
L70501 72092
L70473 72064
L70417 72036
L70304 72007
L70248 71979
L70220 71951
L70192 71895
L70192 71839
L70220 71782
L70248 71754
L70304 71726
L70445 71726
L70529 71754
" />
<path d="M70782 72317
L70782 71726
" />
<path d="M71035 72317
L71035 72007
L71007 71951
L70951 71923
L70867 71923
L70810 71951
L70782 71979
" />
<path d="M71541 72289
L71485 72317
L71373 72317
L71316 72289
L71288 72232
L71288 72007
L71316 71951
L71373 71923
L71485 71923
L71541 71951
L71570 72007
L71570 72064
L71288 72120
" />
<path d="M72048 72289
L71991 72317
L71879 72317
L71823 72289
L71795 72232
L71795 72007
L71823 71951
L71879 71923
L71991 71923
L72048 71951
L72076 72007
L72076 72064
L71795 72120
" />
<path d="M72244 71923
L72469 71923
" />
<path d="M72329 71726
L72329 72232
L72357 72289
L72413 72317
L72469 72317
" />
<path d="M72666 72260
L72694 72289
L72666 72317
L72638 72289
L72666 72260
L72666 72317
" />
<path d="M72666 71951
L72694 71979
L72666 72007
L72638 71979
L72666 71951
L72666 72007
" />
</g>
<g style="fill:#000000; fill-opacity:0.0; 
stroke:#000000; stroke-width:39.3701; stroke-opacity:1; 
stroke-linecap:round; stroke-linejoin:round;">
</g>
<g style="fill:#000000; fill-opacity:0.0; 
stroke:#000000; stroke-width:59.0551; stroke-opacity:1; 
stroke-linecap:round; stroke-linejoin:round;">
<path d="M77559 75396
L77559 76577
" />
</g>
<g style="fill:#000000; fill-opacity:0.0; 
stroke:#000000; stroke-width:39.3701; stroke-opacity:1; 
stroke-linecap:round; stroke-linejoin:round;">
</g>
<g style="fill:#000000; fill-opacity:0.0; 
stroke:#000000; stroke-width:59.0551; stroke-opacity:1; 
stroke-linecap:round; stroke-linejoin:round;">
<path d="M102756 75396
L102756 77955
" />
</g>
<g style="fill:#FFFFFF; fill-opacity:0.0; 
stroke:#FFFFFF; stroke-width:59.0551; stroke-opacity:1; 
stroke-linecap:round; stroke-linejoin:round;">
</g>
<g style="fill:#000000; fill-opacity:0.0; 
stroke:#000000; stroke-width:59.0551; stroke-opacity:1; 
stroke-linecap:round; stroke-linejoin:round;">
</g>
<g style="fill:#840000; fill-opacity:0.0; 
stroke:#840000; stroke-width:59.0551; stroke-opacity:1; 
stroke-linecap:round; stroke-linejoin:round;">
</g>
<g style="fill:#840000; fill-opacity:1.0; 
stroke:#840000; stroke-width:0; stroke-opacity:1; 
stroke-linecap:round; stroke-linejoin:round;">
<circle cx="61400" cy="41812.6" r="393.701" /> 
</g>
<g style="fill:#840000; fill-opacity:1.0; 
stroke:#840000; stroke-width:39.3701; stroke-opacity:1; 
stroke-linecap:round; stroke-linejoin:round;">
</g>
<g style="fill:#840000; fill-opacity:1.0; 
stroke:#840000; stroke-width:0; stroke-opacity:1; 
stroke-linecap:round; stroke-linejoin:round;">
<circle cx="61400" cy="43387.4" r="393.701" /> 
</g>
<g style="fill:#840000; fill-opacity:1.0; 
stroke:#840000; stroke-width:39.3701; stroke-opacity:1; 
stroke-linecap:round; stroke-linejoin:round;">
</g>
<g style="fill:#840000; fill-opacity:1.0; 
stroke:#840000; stroke-width:0; stroke-opacity:1; 
stroke-linecap:round; stroke-linejoin:round;">
<polyline style="fill-rule:evenodd;"
points="61085,37718
61714,37718
61714,38506
61085,38506
61085,37718
" /> 
<polyline style="fill-rule:evenodd;"
points="61085,39293
61714,39293
61714,40081
61085,40081
61085,39293
" /> 
<polyline style="fill-rule:evenodd;"
points="63182,45342
63182,45657
62867,45657
62867,45342
63182,45342
" /> 
<polyline style="fill-rule:evenodd;"
points="62532,45342
62532,45657
62217,45657
62217,45342
62532,45342
" /> 
<polyline style="fill-rule:evenodd;"
points="67534,43781
66865,43781
66865,42993
67534,42993
67534,43781
" /> 
<polyline style="fill-rule:evenodd;"
points="67534,42206
66865,42206
66865,41418
67534,41418
67534,42206
" /> 
<polyline style="fill-rule:evenodd;"
points="67634,40481
66965,40481
66965,39693
67634,39693
67634,40481
" /> 
<polyline style="fill-rule:evenodd;"
points="67634,38906
66965,38906
66965,38118
67634,38118
67634,38906
" /> 
<polyline style="fill-rule:evenodd;"
points="64618,45834
64618,45165
65406,45165
65406,45834
64618,45834
" /> 
<polyline style="fill-rule:evenodd;"
points="66193,45834
66193,45165
66981,45165
66981,45834
66193,45834
" /> 
<polyline style="fill-rule:evenodd;"
points="65026,38196
65538,38196
65538,38708
65026,38708
65026,38196
" /> 
<polyline style="fill-rule:evenodd;"
points="62861,37606
63373,37606
63373,38393
62861,38393
62861,37606
" /> 
<polyline style="fill-rule:evenodd;"
points="65026,37291
65538,37291
65538,37803
65026,37803
65026,37291
" /> 
<polyline style="fill-rule:evenodd;"
points="63550,41575
63550,41125
63750,41125
63750,41575
63550,41575
" /> 
<polyline style="fill-rule:evenodd;"
points="64050,41575
64050,41125
64250,41125
64250,41575
64050,41575
" /> 
<polyline style="fill-rule:evenodd;"
points="64550,41575
64550,41125
64750,41125
64750,41575
64550,41575
" /> 
<polyline style="fill-rule:evenodd;"
points="65050,41575
65050,41125
65250,41125
65250,41575
65050,41575
" /> 
<polyline style="fill-rule:evenodd;"
points="65050,44075
65050,43625
65250,43625
65250,44075
65050,44075
" /> 
<polyline style="fill-rule:evenodd;"
points="64550,44075
64550,43625
64750,43625
64750,44075
64550,44075
" /> 
<polyline style="fill-rule:evenodd;"
points="64050,44075
64050,43625
64250,43625
64250,44075
64050,44075
" /> 
<polyline style="fill-rule:evenodd;"
points="63550,44075
63550,43625
63750,43625
63750,44075
63550,44075
" /> 
</g>
<g style="fill:#840000; fill-opacity:1.0; 
stroke:#840000; stroke-width:196.85; stroke-opacity:1; 
stroke-linecap:round; stroke-linejoin:round;">
</g>
<g style="fill:#840000; fill-opacity:0.0; 
stroke:#840000; stroke-width:196.85; stroke-opacity:1; 
stroke-linecap:round; stroke-linejoin:round;">
<path d="M67200 43387
L66512 43387
" />
<path d="M66050 43850
L65150 43850
" />
<path d="M66512 43387
L66050 43850
" />
<path d="M63650 41350
L63650 42250
" />
<path d="M63650 42250
L64200 42800
" />
<path d="M64200 42800
L64800 42800
" />
<path d="M64800 42800
L65150 43150
" />
<path d="M65150 43150
L65150 43850
" />
<path d="M67200 43387
L67012 43387
" />
<path d="M61400 41812
L62087 41812
" />
<path d="M62550 41350
L63650 41350
" />
<path d="M62087 41812
L62550 41350
" />
<path d="M64150 43850
L64150 44250
" />
<path d="M65900 40700
L64650 40700
" />
<path d="M66300 40300
L65900 40700
" />
<path d="M66300 39900
L66300 40300
" />
<path d="M66900 39300
L66300 39900
" />
<path d="M67700 39300
L66900 39300
" />
<path d="M68000 39600
L67700 39300
" />
<path d="M68000 45300
L68000 39600
" />
<path d="M67200 46100
L68000 45300
" />
<path d="M66000 46100
L67200 46100
" />
<path d="M65800 45900
L66000 46100
" />
<path d="M65800 45000
L65800 45900
" />
<path d="M65600 44800
L65800 45000
" />
<path d="M64700 44800
L65600 44800
" />
<path d="M64150 44250
L64700 44800
" />
<path d="M64650 40700
L64700 40700
" />
<path d="M64700 40700
L64650 40700
" />
<path d="M63117 38000
L63117 38417
" />
<path d="M64650 39950
L64650 40700
" />
<path d="M64650 40700
L64650 41350
" />
<path d="M63117 38417
L64500 39800
" />
<path d="M64500 39800
L64650 39950
" />
<path d="M63117 38000
L61512 38000
" />
<path d="M61512 38000
L61400 38112
" />
<path d="M65012 45500
L63024 45500
" />
<path d="M64150 41350
L64150 41850
" />
<path d="M66287 41812
L67200 41812
" />
<path d="M66000 42100
L66287 41812
" />
<path d="M64400 42100
L66000 42100
" />
<path d="M64150 41850
L64400 42100
" />
<path d="M67300 40087
L67300 41712
" />
<path d="M67300 41712
L67200 41812
" />
<path d="M67300 38512
L65342 38512
" />
<path d="M65342 38512
L65282 38452
" />
<path d="M64650 43850
L64650 44050
" />
<path d="M64650 44050
L65000 44400
" />
<path d="M65000 44400
L66300 44400
" />
<path d="M66300 44400
L66587 44687
" />
<path d="M66587 44687
L66587 45500
" />
</g>
<g style="fill:#840000; fill-opacity:1.0; 
stroke:#840000; stroke-width:60; stroke-opacity:1; 
stroke-linecap:round; stroke-linejoin:round;">
<polyline style="fill-rule:evenodd;"
points="68480,46580
59919,46580
59919,45627
61987,45627
61987,45703
62022,45787
62087,45852
62171,45887
62247,45887
62305,45829
62305,45570
62045,45570
61987,45627
59919,45627
59919,45296
61987,45296
61987,45372
62045,45430
62305,45430
62305,45170
62247,45112
62171,45112
62087,45147
62022,45212
61987,45296
59919,45296
59919,43842
61043,43842
61085,43939
61320,44018
61568,44000
61624,43977
63320,43977
63320,44120
63355,44205
63419,44269
63504,44305
63542,44305
63600,44247
63600,43920
63377,43920
63320,43977
61624,43977
61714,43939
61756,43842
61400,43486
61043,43842
59919,43842
59919,43307
60769,43307
60786,43555
60847,43702
60944,43743
61301,43387
61498,43387
61855,43743
61952,43702
61993,43579
63320,43579
63320,43722
63377,43780
63600,43780
63600,43452
63542,43395
63504,43395
63419,43430
63355,43494
63320,43579
61993,43579
62030,43466
62013,43219
61952,43072
61855,43030
61498,43387
61301,43387
60944,43030
60847,43072
60769,43307
59919,43307
59919,42931
61043,42931
61400,43288
61756,42931
61714,42834
61479,42756
61231,42774
61085,42834
61043,42931
59919,42931
59919,41927
60818,41927
60907,42141
61070,42305
61283,42393
61515,42393
61728,42305
61892,42142
61910,42098
62087,42098
62196,42076
62289,42014
62668,41635
63364,41635
63364,42250
63385,42359
63403,42385
63447,42452
63997,43002
64090,43064
64200,43085
64681,43085
64864,43268
64864,43476
64824,43448
64750,43433
64550,43433
64480,43446
64416,43487
64400,43512
64387,43491
64324,43448
64250,43433
64050,43433
63980,43446
63929,43479
63880,43430
63795,43395
63757,43395
63700,43452
63700,43780
63727,43780
63727,43920
63700,43920
63700,44247
63757,44305
63795,44305
63868,44274
63885,44359
63912,44400
63947,44452
64497,45002
64511,45011
64485,45028
64442,45090
64427,45165
64427,45214
63322,45214
63319,45209
63256,45166
63182,45151
62867,45151
62797,45164
62734,45205
62728,45213
62727,45212
62662,45147
62578,45112
62502,45112
62445,45170
62445,45430
62453,45430
62453,45570
62445,45570
62445,45829
62502,45887
62578,45887
62662,45852
62727,45787
62727,45787
62730,45790
62792,45833
62867,45848
63182,45848
63251,45835
63315,45794
63321,45785
64427,45785
64427,45834
64440,45904
64481,45967
64544,46010
64618,46025
65406,46025
65475,46012
65529,45978
65535,46009
65596,46100
65597,46102
65797,46302
65890,46364
66000,46385
67200,46385
67309,46364
67402,46302
68202,45502
68203,45500
68264,45409
68285,45300
68285,39600
68264,39490
68202,39397
67902,39097
67882,39084
67809,39035
67777,39029
67810,38980
67825,38906
67825,38118
67812,38049
67771,37985
67709,37942
67634,37927
66965,37927
66895,37940
66832,37981
66789,38044
66774,38118
66774,38226
65729,38226
65729,38196
65716,38127
65675,38063
65612,38020
65538,38005
65026,38005
64957,38018
64893,38059
64850,38122
64835,38196
64835,38708
64848,38778
64889,38841
64952,38884
65026,38899
65538,38899
65608,38886
65671,38845
65704,38798
66774,38798
66774,38906
66787,38975
66821,39029
66790,39035
66697,39097
66097,39697
66035,39790
66014,39900
66014,40181
65781,40414
64935,40414
64935,39950
64914,39840
64852,39747
63553,38448
63564,38393
63564,37606
63551,37536
63510,37473
63447,37430
63373,37415
62861,37415
62791,37428
62728,37469
62685,37531
62670,37606
62670,37714
61905,37714
61893,37649
61851,37585
61789,37542
61714,37527
61085,37527
61015,37540
60951,37581
60908,37644
60893,37718
60893,38506
60906,38575
60948,38639
61010,38682
61085,38697
61714,38697
61784,38684
61848,38643
61891,38580
61906,38506
61906,38285
62670,38285
62670,38393
62683,38463
62724,38526
62787,38569
62861,38584
62892,38584
62915,38619
64364,40068
64364,40976
64324,40948
64250,40933
64050,40933
63980,40946
63916,40987
63900,41012
63887,40991
63824,40948
63750,40933
63550,40933
63480,40946
63416,40987
63373,41050
63371,41064
62550,41064
62440,41085
62382,41125
62347,41147
61968,41526
61910,41526
61892,41483
61729,41320
61516,41231
61284,41231
61071,41319
60907,41482
60818,41696
60818,41927
59919,41927
59919,39814
60855,39814
60855,40126
60890,40211
60954,40276
61039,40311
61272,40311
61330,40253
61330,39757
61470,39757
61470,40253
61527,40311
61760,40311
61845,40276
61909,40211
61944,40126
61944,39814
61887,39757
61470,39757
61330,39757
60912,39757
60855,39814
59919,39814
59919,39247
60855,39247
60855,39559
60912,39617
61330,39617
61330,39121
61470,39121
61470,39617
61887,39617
61944,39559
61944,39247
61909,39163
61845,39098
61760,39063
61527,39063
61470,39121
61330,39121
61272,39063
61039,39063
60954,39098
60890,39163
60855,39247
59919,39247
59919,37291
64835,37291
64835,37803
64848,37872
64889,37936
64952,37979
65026,37994
65538,37994
65608,37981
65671,37940
65714,37877
65729,37803
65729,37291
65716,37221
65675,37158
65612,37115
65538,37100
65026,37100
64957,37113
64893,37154
64850,37216
64835,37291
59919,37291
59919,36619
68480,36619
68480,46580
" /> 
</g>
<g style="fill:#FFFFFF; fill-opacity:1.0; 
stroke:#FFFFFF; stroke-width:60; stroke-opacity:1; 
stroke-linecap:round; stroke-linejoin:round;">
</g>
<g style="fill:#000000; fill-opacity:1.0; 
stroke:#000000; stroke-width:60; stroke-opacity:1; 
stroke-linecap:round; stroke-linejoin:round;">
</g>
<g style="fill:#840000; fill-opacity:1.0; 
stroke:#840000; stroke-width:60; stroke-opacity:1; 
stroke-linecap:round; stroke-linejoin:round;">
</g>
<g style="fill:#840000; fill-opacity:1.0; 
stroke:#840000; stroke-width:0; stroke-opacity:1; 
stroke-linecap:round; stroke-linejoin:round;">
<circle cx="61400" cy="41812.6" r="472.441" /> 
</g>
<g style="fill:#840000; fill-opacity:1.0; 
stroke:#840000; stroke-width:39.3701; stroke-opacity:1; 
stroke-linecap:round; stroke-linejoin:round;">
</g>
<g style="fill:#840000; fill-opacity:1.0; 
stroke:#840000; stroke-width:0; stroke-opacity:1; 
stroke-linecap:round; stroke-linejoin:round;">
<circle cx="61400" cy="43387.4" r="472.441" /> 
</g>
<g style="fill:#840000; fill-opacity:1.0; 
stroke:#840000; stroke-width:39.3701; stroke-opacity:1; 
stroke-linecap:round; stroke-linejoin:round;">
</g>
<g style="fill:#840000; fill-opacity:1.0; 
stroke:#840000; stroke-width:0; stroke-opacity:1; 
stroke-linecap:round; stroke-linejoin:round;">
<polyline style="fill-rule:evenodd;"
points="61006,37640
61793,37640
61793,38585
61006,38585
61006,37640
" /> 
<polyline style="fill-rule:evenodd;"
points="61006,39214
61793,39214
61793,40159
61006,40159
61006,39214
" /> 
<polyline style="fill-rule:evenodd;"
points="63261,45263
63261,45736
62788,45736
62788,45263
63261,45263
" /> 
<polyline style="fill-rule:evenodd;"
points="62611,45263
62611,45736
62138,45736
62138,45263
62611,45263
" /> 
<polyline style="fill-rule:evenodd;"
points="67613,43859
66786,43859
66786,42914
67613,42914
67613,43859
" /> 
<polyline style="fill-rule:evenodd;"
points="67613,42285
66786,42285
66786,41340
67613,41340
67613,42285
" /> 
<polyline style="fill-rule:evenodd;"
points="67713,40559
66886,40559
66886,39614
67713,39614
67713,40559
" /> 
<polyline style="fill-rule:evenodd;"
points="67713,38985
66886,38985
66886,38040
67713,38040
67713,38985
" /> 
<polyline style="fill-rule:evenodd;"
points="64540,45913
64540,45086
65485,45086
65485,45913
64540,45913
" /> 
<polyline style="fill-rule:evenodd;"
points="66114,45913
66114,45086
67059,45086
67059,45913
66114,45913
" /> 
<polyline style="fill-rule:evenodd;"
points="64948,38118
65617,38118
65617,38787
64948,38787
64948,38118
" /> 
<polyline style="fill-rule:evenodd;"
points="62782,37527
63451,37527
63451,38472
62782,38472
62782,37527
" /> 
<polyline style="fill-rule:evenodd;"
points="64948,37212
65617,37212
65617,37881
64948,37881
64948,37212
" /> 
<polyline style="fill-rule:evenodd;"
points="63471,41653
63471,41046
63828,41046
63828,41653
63471,41653
" /> 
<polyline style="fill-rule:evenodd;"
points="63971,41653
63971,41046
64328,41046
64328,41653
63971,41653
" /> 
<polyline style="fill-rule:evenodd;"
points="64471,41653
64471,41046
64828,41046
64828,41653
64471,41653
" /> 
<polyline style="fill-rule:evenodd;"
points="64971,41653
64971,41046
65328,41046
65328,41653
64971,41653
" /> 
<polyline style="fill-rule:evenodd;"
points="64971,44153
64971,43546
65328,43546
65328,44153
64971,44153
" /> 
<polyline style="fill-rule:evenodd;"
points="64471,44153
64471,43546
64828,43546
64828,44153
64471,44153
" /> 
<polyline style="fill-rule:evenodd;"
points="63971,44153
63971,43546
64328,43546
64328,44153
63971,44153
" /> 
<polyline style="fill-rule:evenodd;"
points="63471,44153
63471,43546
63828,43546
63828,44153
63471,44153
" /> 
</g>
<g style="fill:#000000; fill-opacity:1.0; 
stroke:#000000; stroke-width:0; stroke-opacity:1; 
stroke-linecap:round; stroke-linejoin:round;">
</g>
<g style="fill:#840000; fill-opacity:1.0; 
stroke:#840000; stroke-width:0; stroke-opacity:1; 
stroke-linecap:round; stroke-linejoin:round;">
<circle cx="61400" cy="41812.6" r="393.701" /> 
</g>
<g style="fill:#840000; fill-opacity:1.0; 
stroke:#840000; stroke-width:39.3701; stroke-opacity:1; 
stroke-linecap:round; stroke-linejoin:round;">
</g>
<g style="fill:#840000; fill-opacity:1.0; 
stroke:#840000; stroke-width:0; stroke-opacity:1; 
stroke-linecap:round; stroke-linejoin:round;">
<circle cx="61400" cy="43387.4" r="393.701" /> 
</g>
<g style="fill:#840000; fill-opacity:1.0; 
stroke:#840000; stroke-width:39.3701; stroke-opacity:1; 
stroke-linecap:round; stroke-linejoin:round;">
</g>
<g style="fill:#840000; fill-opacity:1.0; 
stroke:#840000; stroke-width:0; stroke-opacity:1; 
stroke-linecap:round; stroke-linejoin:round;">
<polyline style="fill-rule:evenodd;"
points="61085,37718
61714,37718
61714,38506
61085,38506
61085,37718
" /> 
<polyline style="fill-rule:evenodd;"
points="61085,39293
61714,39293
61714,40081
61085,40081
61085,39293
" /> 
<polyline style="fill-rule:evenodd;"
points="63182,45342
63182,45657
62867,45657
62867,45342
63182,45342
" /> 
<polyline style="fill-rule:evenodd;"
points="62532,45342
62532,45657
62217,45657
62217,45342
62532,45342
" /> 
<polyline style="fill-rule:evenodd;"
points="67534,43781
66865,43781
66865,42993
67534,42993
67534,43781
" /> 
<polyline style="fill-rule:evenodd;"
points="67534,42206
66865,42206
66865,41418
67534,41418
67534,42206
" /> 
<polyline style="fill-rule:evenodd;"
points="67634,40481
66965,40481
66965,39693
67634,39693
67634,40481
" /> 
<polyline style="fill-rule:evenodd;"
points="67634,38906
66965,38906
66965,38118
67634,38118
67634,38906
" /> 
<polyline style="fill-rule:evenodd;"
points="64618,45834
64618,45165
65406,45165
65406,45834
64618,45834
" /> 
<polyline style="fill-rule:evenodd;"
points="66193,45834
66193,45165
66981,45165
66981,45834
66193,45834
" /> 
<polyline style="fill-rule:evenodd;"
points="65026,38196
65538,38196
65538,38708
65026,38708
65026,38196
" /> 
<polyline style="fill-rule:evenodd;"
points="62861,37606
63373,37606
63373,38393
62861,38393
62861,37606
" /> 
<polyline style="fill-rule:evenodd;"
points="65026,37291
65538,37291
65538,37803
65026,37803
65026,37291
" /> 
<polyline style="fill-rule:evenodd;"
points="63550,41575
63550,41125
63750,41125
63750,41575
63550,41575
" /> 
<polyline style="fill-rule:evenodd;"
points="64050,41575
64050,41125
64250,41125
64250,41575
64050,41575
" /> 
<polyline style="fill-rule:evenodd;"
points="64550,41575
64550,41125
64750,41125
64750,41575
64550,41575
" /> 
<polyline style="fill-rule:evenodd;"
points="65050,41575
65050,41125
65250,41125
65250,41575
65050,41575
" /> 
<polyline style="fill-rule:evenodd;"
points="65050,44075
65050,43625
65250,43625
65250,44075
65050,44075
" /> 
<polyline style="fill-rule:evenodd;"
points="64550,44075
64550,43625
64750,43625
64750,44075
64550,44075
" /> 
<polyline style="fill-rule:evenodd;"
points="64050,44075
64050,43625
64250,43625
64250,44075
64050,44075
" /> 
<polyline style="fill-rule:evenodd;"
points="63550,44075
63550,43625
63750,43625
63750,44075
63550,44075
" /> 
</g>
<g style="fill:#000000; fill-opacity:1.0; 
stroke:#000000; stroke-width:0; stroke-opacity:1; 
stroke-linecap:round; stroke-linejoin:round;">
</g>
<g style="fill:#008484; fill-opacity:1.0; 
stroke:#008484; stroke-width:0; stroke-opacity:1; 
stroke-linecap:round; stroke-linejoin:round;">
</g>
<g style="fill:#008484; fill-opacity:1.0; 
stroke:#008484; stroke-width:59.0551; stroke-opacity:1; 
stroke-linecap:round; stroke-linejoin:round;">
</g>
<g style="fill:#008484; fill-opacity:0.0; 
stroke:#008484; stroke-width:59.0551; stroke-opacity:1; 
stroke-linecap:round; stroke-linejoin:round;">
<path d="M61803 39293
L61803 38506
" />
<path d="M60996 38506
L60996 39293
" />
<path d="M61853 45913
L63270 45913
" />
<path d="M61853 45086
L63270 45086
" />
<path d="M62724 45387
L62724 45624
" />
<path d="M62724 45624
L62606 45506
" />
<path d="M62606 45506
L62685 45427
" />
<path d="M62685 45427
L62685 45525
" />
<path d="M62685 45525
L62665 45506
" />
<path d="M62567 45309
L62567 45702
" />
<path d="M62700 45500
L62896 45500
" />
<path d="M62567 45506
L62764 45309
" />
<path d="M62764 45309
L62764 45702
" />
<path d="M62764 45702
L62567 45506
" />
<path d="M67623 42206
L67623 42993
" />
<path d="M66776 42993
L66776 42206
" />
<path d="M67723 38906
L67723 39693
" />
<path d="M66876 39693
L66876 38906
" />
<path d="M66193 45923
L65406 45923
" />
<path d="M65406 45076
L66193 45076
" />
<path d="M63400 41700
L65400 41700
" />
<path d="M65400 41700
L65400 43500
" />
<path d="M65400 43500
L63400 43500
" />
<path d="M63400 43500
L63400 41700
" />
<path d="M63400 42300
L63600 42300
" />
<path d="M63600 42300
L63600 42800
" />
<path d="M63600 42800
L63400 42800
" />
</g>
<g style="fill:#C2C200; fill-opacity:0.0; 
stroke:#C2C200; stroke-width:59.0551; stroke-opacity:1; 
stroke-linecap:round; stroke-linejoin:round;">
<path d="M62121 42876
L62140 42820
L62159 42801
L62196 42782
L62253 42782
L62290 42801
L62309 42820
L62328 42857
L62328 43007
L61934 43007
L61934 42876
L61953 42838
L61971 42820
L62009 42801
L62046 42801
L62084 42820
L62103 42838
L62121 42876
L62121 43007
" />
<path d="M61934 42670
L61934 42445
" />
<path d="M62328 42557
L61934 42557
" />
<path d="M62328 42107
L62328 42332
" />
<path d="M62328 42220
L61934 42220
L61990 42257
L62028 42295
L62046 42332
" />
</g>
<g style="fill:#008484; fill-opacity:0.0; 
stroke:#008484; stroke-width:59.0551; stroke-opacity:1; 
stroke-linecap:round; stroke-linejoin:round;">
<path d="M60759 43563
L60759 43264
" />
<path d="M60759 41968
L60759 41669
" />
<path d="M60909 41818
L60609 41818
" />
</g>
<g style="fill:#C2C200; fill-opacity:0.0; 
stroke:#C2C200; stroke-width:59.0551; stroke-opacity:1; 
stroke-linecap:round; stroke-linejoin:round;">
<path d="M62446 38965
L62464 38984
L62483 39040
L62483 39078
L62464 39134
L62427 39171
L62389 39190
L62314 39209
L62258 39209
L62183 39190
L62146 39171
L62108 39134
L62089 39078
L62089 39040
L62108 38984
L62127 38965
" />
<path d="M62483 38590
L62483 38815
" />
<path d="M62483 38703
L62089 38703
L62146 38740
L62183 38778
L62202 38815
" />
<path d="M62409 44890
L62409 44497
L62503 44497
L62559 44515
L62596 44553
L62615 44590
L62634 44665
L62634 44721
L62615 44796
L62596 44834
L62559 44871
L62503 44890
L62409 44890
" />
<path d="M63009 44890
L62784 44890
" />
<path d="M62896 44890
L62896 44497
L62859 44553
L62821 44590
L62784 44609
" />
<path d="M66472 42665
L66285 42796
" />
<path d="M66472 42890
L66078 42890
L66078 42740
L66097 42703
L66116 42684
L66153 42665
L66210 42665
L66247 42684
L66266 42703
L66285 42740
L66285 42890
" />
<path d="M66472 42290
L66472 42515
" />
<path d="M66472 42403
L66078 42403
L66135 42440
L66172 42478
L66191 42515
" />
<path d="M66572 39365
L66385 39496
" />
<path d="M66572 39590
L66178 39590
L66178 39440
L66197 39403
L66216 39384
L66253 39365
L66310 39365
L66347 39384
L66366 39403
L66385 39440
L66385 39590
" />
<path d="M66216 39215
L66197 39196
L66178 39159
L66178 39065
L66197 39028
L66216 39009
L66253 38990
L66291 38990
L66347 39009
L66572 39234
L66572 38990
" />
<path d="M65734 44772
L65603 44585
" />
<path d="M65509 44772
L65509 44378
L65659 44378
L65696 44397
L65715 44416
L65734 44453
L65734 44510
L65715 44547
L65696 44566
L65659 44585
L65509 44585
" />
<path d="M65865 44378
L66109 44378
L65978 44528
L66034 44528
L66071 44547
L66090 44566
L66109 44603
L66109 44697
L66090 44735
L66071 44753
L66034 44772
L65921 44772
L65884 44753
L65865 44735
" />
<path d="M64055 39413
L63924 39225
" />
<path d="M63830 39413
L63830 39019
L63980 39019
L64018 39038
L64036 39056
L64055 39094
L64055 39150
L64036 39188
L64018 39206
L63980 39225
L63830 39225
" />
<path d="M64168 39019
L64299 39413
L64430 39019
" />
<path d="M64768 39413
L64543 39413
" />
<path d="M64655 39413
L64655 39019
L64618 39075
L64580 39113
L64543 39131
" />
<path d="M64100 41884
L64100 42203
L64118 42240
L64137 42259
L64175 42278
L64250 42278
L64287 42259
L64306 42240
L64325 42203
L64325 41884
" />
<path d="M64718 42278
L64493 42278
" />
<path d="M64606 42278
L64606 41884
L64568 41940
L64531 41978
L64493 41996
" />
</g>
<g style="fill:#000000; fill-opacity:0.0; 
stroke:#000000; stroke-width:59.0551; stroke-opacity:1; 
stroke-linecap:round; stroke-linejoin:round;">
</g>
<g style="fill:#848484; fill-opacity:0.0; 
stroke:#848484; stroke-width:59.0551; stroke-opacity:1; 
stroke-linecap:round; stroke-linejoin:round;">
</g>
<g style="fill:#848484; fill-opacity:0.0; 
stroke:#848484; stroke-width:19.685; stroke-opacity:1; 
stroke-linecap:round; stroke-linejoin:round;">
<path d="M61852 37600
L61852 40199
" />
<path d="M60947 37600
L60947 40199
" />
<path d="M61852 37600
L60947 37600
" />
<path d="M61852 40199
L60947 40199
" />
<path d="M63684 45007
L61715 45007
" />
<path d="M61715 45007
L61715 45992
" />
<path d="M61715 45992
L63684 45992
" />
<path d="M63684 45992
L63684 45007
" />
<path d="M66727 43899
L66727 41300
" />
<path d="M67672 43899
L67672 41300
" />
<path d="M66727 43899
L67672 43899
" />
<path d="M66727 41300
L67672 41300
" />
<path d="M66827 40599
L66827 38000
" />
<path d="M67772 40599
L67772 38000
" />
<path d="M66827 40599
L67772 40599
" />
<path d="M66827 38000
L67772 38000
" />
<path d="M64500 45027
L67099 45027
" />
<path d="M64500 45972
L67099 45972
" />
<path d="M64500 45027
L64500 45972
" />
<path d="M67099 45027
L67099 45972
" />
</g>
<g style="fill:#000000; fill-opacity:0.0; 
stroke:#000000; stroke-width:19.685; stroke-opacity:1; 
stroke-linecap:round; stroke-linejoin:round;">
</g>
<g style="fill:#C2C200; fill-opacity:0.0; 
stroke:#C2C200; stroke-width:19.685; stroke-opacity:1; 
stroke-linecap:round; stroke-linejoin:round;">
</g>
<g style="fill:#C2C200; fill-opacity:0.0; 
stroke:#C2C200; stroke-width:59.0551; stroke-opacity:1; 
stroke-linecap:round; stroke-linejoin:round;">
<path d="M61085 38270
L61714 38270
" />
<path d="M61085 39529
L61085 38270
" />
<path d="M61714 39529
L61085 39529
" />
<path d="M61714 38270
L61714 39529
" />
<path d="M62567 45309
L62567 45702
" />
<path d="M62567 45506
L62764 45309
" />
<path d="M62764 45702
L62567 45506
" />
<path d="M62764 45309
L62764 45702
" />
<path d="M62070 45814
L62070 45185
" />
<path d="M63329 45814
L62070 45814
" />
<path d="M63329 45185
L63329 45814
" />
<path d="M62070 45185
L63329 45185
" />
</g>
<g style="fill:#C2C200; fill-opacity:0.0; 
stroke:#C2C200; stroke-width:39.3701; stroke-opacity:1; 
stroke-linecap:round; stroke-linejoin:round;">
<path d="M67514 43229
L66885 43229
" />
<path d="M67514 41970
L67514 43229
" />
<path d="M66885 41970
L67514 41970
" />
<path d="M66885 43229
L66885 41970
" />
<path d="M67614 39929
L66985 39929
" />
<path d="M67614 38670
L67614 39929
" />
<path d="M66985 38670
L67614 38670
" />
<path d="M66985 39929
L66985 38670
" />
<path d="M65170 45814
L65170 45185
" />
<path d="M66429 45814
L65170 45814
" />
<path d="M66429 45185
L66429 45814
" />
<path d="M65170 45185
L66429 45185
" />
</g>
<g style="fill:#C2C200; fill-opacity:0.0; 
stroke:#C2C200; stroke-width:59.0551; stroke-opacity:1; 
stroke-linecap:round; stroke-linejoin:round;">
<path d="M60262 43470
L60281 43414
L60300 43395
L60337 43376
L60394 43376
L60431 43395
L60450 43414
L60469 43451
L60469 43601
L60075 43601
L60075 43470
L60094 43433
L60112 43414
L60150 43395
L60187 43395
L60225 43414
L60244 43433
L60262 43470
L60262 43601
" />
<path d="M60469 43039
L60262 43039
L60225 43058
L60206 43095
L60206 43170
L60225 43208
" />
<path d="M60450 43039
L60469 43076
L60469 43170
L60450 43208
L60412 43226
L60375 43226
L60337 43208
L60319 43170
L60319 43076
L60300 43039
" />
<path d="M60206 42908
L60206 42758
" />
<path d="M60075 42851
L60412 42851
L60450 42833
L60469 42795
L60469 42758
" />
<path d="M60206 42683
L60206 42533
" />
<path d="M60075 42626
L60412 42626
L60450 42608
L60469 42570
L60469 42533
" />
<path d="M60450 42251
L60469 42289
L60469 42364
L60450 42401
L60412 42420
L60262 42420
L60225 42401
L60206 42364
L60206 42289
L60225 42251
L60262 42233
L60300 42233
L60337 42420
" />
<path d="M60469 42064
L60206 42064
" />
<path d="M60281 42064
L60244 42045
L60225 42026
L60206 41989
L60206 41951
" />
<path d="M60206 41858
L60469 41764
" />
<path d="M60206 41670
L60469 41764
L60562 41801
L60581 41820
L60600 41858
" />
<path d="M60672 39181
L60672 39406
" />
<path d="M60672 39293
L60278 39293
L60335 39331
L60372 39368
L60391 39406
" />
<path d="M60278 38937
L60278 38899
L60297 38862
L60316 38843
L60353 38825
L60428 38806
L60522 38806
L60597 38825
L60635 38843
L60653 38862
L60672 38899
L60672 38937
L60653 38974
L60635 38993
L60597 39012
L60522 39031
L60428 39031
L60353 39012
L60316 38993
L60297 38974
L60278 38937
" />
<path d="M60410 38637
L60803 38637
" />
<path d="M60616 38450
L60653 38431
L60672 38393
" />
<path d="M60616 38637
L60653 38618
L60672 38581
L60672 38506
L60653 38468
L60616 38450
L60410 38450
" />
<path d="M62446 46465
L62259 46465
L62259 46071
" />
<path d="M62578 46259
L62709 46259
" />
<path d="M62765 46465
L62578 46465
L62578 46071
L62765 46071
" />
<path d="M62934 46465
L62934 46071
L63028 46071
L63084 46090
L63121 46128
L63140 46165
L63159 46240
L63159 46296
L63140 46371
L63121 46409
L63084 46446
L63028 46465
L62934 46465
" />
<path d="M68283 42646
L68283 42871
" />
<path d="M68283 42759
L67889 42759
L67946 42796
L67983 42834
L68002 42871
" />
<path d="M68283 42478
L67889 42478
" />
<path d="M68133 42440
L68283 42328
" />
<path d="M68021 42328
L68171 42478
" />
<path d="M68383 39534
L68383 39759
" />
<path d="M68383 39646
L67989 39646
L68046 39684
L68083 39721
L68102 39759
" />
<path d="M67989 39290
L67989 39253
L68008 39215
L68027 39196
L68064 39178
L68139 39159
L68233 39159
L68308 39178
L68346 39196
L68364 39215
L68383 39253
L68383 39290
L68364 39328
L68346 39346
L68308 39365
L68233 39384
L68139 39384
L68064 39365
L68027 39346
L68008 39328
L67989 39290
" />
<path d="M68383 38990
L67989 38990
" />
<path d="M68233 38953
L68383 38840
" />
<path d="M68121 38840
L68271 38990
" />
<path d="M65312 46227
L65331 46208
L65368 46189
L65462 46189
L65500 46208
L65518 46227
L65537 46264
L65537 46302
L65518 46358
L65293 46583
L65537 46583
" />
<path d="M65781 46189
L65818 46189
L65856 46208
L65874 46227
L65893 46264
L65912 46339
L65912 46433
L65893 46508
L65874 46546
L65856 46564
L65818 46583
L65781 46583
L65743 46564
L65725 46546
L65706 46508
L65687 46433
L65687 46339
L65706 46264
L65725 46227
L65743 46208
L65781 46189
" />
<path d="M66156 46189
L66193 46189
L66231 46208
L66249 46227
L66268 46264
L66287 46339
L66287 46433
L66268 46508
L66249 46546
L66231 46564
L66193 46583
L66156 46583
L66118 46564
L66099 46546
L66081 46508
L66062 46433
L66062 46339
L66081 46264
L66099 46227
L66118 46208
L66156 46189
" />
<path d="M63628 36611
L63646 36593
L63684 36574
L63778 36574
L63815 36593
L63834 36611
L63853 36649
L63853 36686
L63834 36743
L63609 36968
L63853 36968
" />
<path d="M64209 36574
L64021 36574
L64003 36761
L64021 36743
L64059 36724
L64153 36724
L64190 36743
L64209 36761
L64228 36799
L64228 36893
L64209 36930
L64190 36949
L64153 36968
L64059 36968
L64021 36949
L64003 36930
" />
<path d="M64471 36574
L64509 36574
L64546 36593
L64565 36611
L64584 36649
L64603 36724
L64603 36818
L64584 36893
L64565 36930
L64546 36949
L64509 36968
L64471 36968
L64434 36949
L64415 36930
L64396 36893
L64378 36818
L64378 36724
L64396 36649
L64415 36611
L64434 36593
L64471 36574
" />
<path d="M64771 36968
L64771 36574
" />
<path d="M64809 36818
L64921 36968
" />
<path d="M64921 36705
L64771 36855
" />
<path d="M63350 43278
L63350 42884
L63575 43278
L63575 42884
" />
<path d="M63762 43071
L63893 43071
" />
<path d="M63950 43278
L63762 43278
L63762 42884
L63950 42884
" />
<path d="M64306 42884
L64118 42884
L64100 43071
L64118 43053
L64156 43034
L64250 43034
L64287 43053
L64306 43071
L64325 43109
L64325 43203
L64306 43240
L64287 43259
L64250 43278
L64156 43278
L64118 43259
L64100 43240
" />
<path d="M64681 42884
L64493 42884
L64474 43071
L64493 43053
L64531 43034
L64624 43034
L64662 43053
L64681 43071
L64699 43109
L64699 43203
L64681 43240
L64662 43259
L64624 43278
L64531 43278
L64493 43259
L64474 43240
" />
<path d="M65056 42884
L64868 42884
L64849 43071
L64868 43053
L64906 43034
L64999 43034
L65037 43053
L65056 43071
L65074 43109
L65074 43203
L65056 43240
L65037 43259
L64999 43278
L64906 43278
L64868 43259
L64849 43240
" />
<path d="M65243 43278
L65243 42884
L65337 42884
L65393 42903
L65431 42940
L65449 42978
L65468 43053
L65468 43109
L65449 43184
L65431 43221
L65393 43259
L65337 43278
L65243 43278
" />
</g>
<g style="fill:#000000; fill-opacity:0.0; 
stroke:#000000; stroke-width:59.0551; stroke-opacity:1; 
stroke-linecap:round; stroke-linejoin:round;">
</g>
<g style="fill:#C2C200; fill-opacity:0.0; 
stroke:#C2C200; stroke-width:59.0551; stroke-opacity:1; 
stroke-linecap:round; stroke-linejoin:round;">
<path d="M68600 46700
L59800 46700
" />
<path d="M59800 46700
L59800 36500
" />
<path d="M68600 36500
L68600 46700
" />
<path d="M59800 36500
L68600 36500
" />
</g> 
</svg>
