<?xml version="1.0" standalone="no"?>
 <!DOCTYPE svg PUBLIC "-//W3C//DTD SVG 1.1//EN" 
 "http://www.w3.org/Graphics/SVG/1.1/DTD/svg11.dtd"> 
<svg xmlns="http://www.w3.org/2000/svg" version="1.1" 
    width="29.7002cm" height="21.0007cm" viewBox="0 0 116930 82680 ">
<title>SVG Picture created as file594AC5D7.sch.svg date 2017/07/02 21:11:43 </title>
  <desc>Picture generated by Eeschema-SVG </desc>
<g style="fill:#000000; fill-opacity:1;stroke:#000000; stroke-opacity:1;
stroke-linecap:round; stroke-linejoin:round; "
 transform="translate(0 0) scale(1 1)">
</g>
<g style="fill:#000000; fill-opacity:0.0; 
stroke:#000000; stroke-width:-10; stroke-opacity:1; 
stroke-linecap:round; stroke-linejoin:round;">
</g>
<g style="fill:#840000; fill-opacity:0.0; 
stroke:#840000; stroke-width:-10; stroke-opacity:1; 
stroke-linecap:round; stroke-linejoin:round;">
</g>
<g style="fill:#840000; fill-opacity:0.0; 
stroke:#840000; stroke-width:100; stroke-opacity:1; 
stroke-linecap:round; stroke-linejoin:round;">
</g>
<g style="fill:#840000; fill-opacity:0.0; 
stroke:#840000; stroke-width:60; stroke-opacity:1; 
stroke-linecap:round; stroke-linejoin:round;">
<rect x="69690" y="65360" width="42520" height="12600" rx="0" />
</g>
<g style="fill:#840000; fill-opacity:0.0; 
stroke:#840000; stroke-width:100; stroke-opacity:1; 
stroke-linecap:round; stroke-linejoin:round;">
</g>
<g style="fill:#840000; fill-opacity:0.0; 
stroke:#840000; stroke-width:60; stroke-opacity:1; 
stroke-linecap:round; stroke-linejoin:round;">
<rect x="3940" y="3940" width="109050" height="74800" rx="0" />
</g>
<g style="fill:#840000; fill-opacity:0.0; 
stroke:#840000; stroke-width:100; stroke-opacity:1; 
stroke-linecap:round; stroke-linejoin:round;">
</g>
<g style="fill:#840000; fill-opacity:0.0; 
stroke:#840000; stroke-width:60; stroke-opacity:1; 
stroke-linecap:round; stroke-linejoin:round;">
<rect x="4720" y="4720" width="107490" height="73240" rx="0" />
</g>
<g style="fill:#840000; fill-opacity:0.0; 
stroke:#840000; stroke-width:100; stroke-opacity:1; 
stroke-linecap:round; stroke-linejoin:round;">
</g>
<g style="fill:#840000; fill-opacity:0.0; 
stroke:#840000; stroke-width:60; stroke-opacity:1; 
stroke-linecap:round; stroke-linejoin:round;">
<path d="M23620 4720
L23620 3940
" />
</g>
<g style="fill:#840000; fill-opacity:0.0; 
stroke:#840000; stroke-width:100; stroke-opacity:1; 
stroke-linecap:round; stroke-linejoin:round;">
</g>
<g style="fill:#840000; fill-opacity:0.0; 
stroke:#840000; stroke-width:60; stroke-opacity:1; 
stroke-linecap:round; stroke-linejoin:round;">
<path d="M43310 4720
L43310 3940
" />
</g>
<g style="fill:#840000; fill-opacity:0.0; 
stroke:#840000; stroke-width:100; stroke-opacity:1; 
stroke-linecap:round; stroke-linejoin:round;">
</g>
<g style="fill:#840000; fill-opacity:0.0; 
stroke:#840000; stroke-width:60; stroke-opacity:1; 
stroke-linecap:round; stroke-linejoin:round;">
<path d="M62990 4720
L62990 3940
" />
</g>
<g style="fill:#840000; fill-opacity:0.0; 
stroke:#840000; stroke-width:100; stroke-opacity:1; 
stroke-linecap:round; stroke-linejoin:round;">
</g>
<g style="fill:#840000; fill-opacity:0.0; 
stroke:#840000; stroke-width:60; stroke-opacity:1; 
stroke-linecap:round; stroke-linejoin:round;">
<path d="M82680 4720
L82680 3940
" />
</g>
<g style="fill:#840000; fill-opacity:0.0; 
stroke:#840000; stroke-width:100; stroke-opacity:1; 
stroke-linecap:round; stroke-linejoin:round;">
</g>
<g style="fill:#840000; fill-opacity:0.0; 
stroke:#840000; stroke-width:60; stroke-opacity:1; 
stroke-linecap:round; stroke-linejoin:round;">
<path d="M102360 4720
L102360 3940
" />
</g>
<g style="fill:#840000; fill-opacity:0.0; 
stroke:#840000; stroke-width:100; stroke-opacity:1; 
stroke-linecap:round; stroke-linejoin:round;">
</g>
<g style="fill:#840000; fill-opacity:0.0; 
stroke:#840000; stroke-width:60; stroke-opacity:1; 
stroke-linecap:round; stroke-linejoin:round;">
<path d="M14170 4560
L13880 4560
" />
<path d="M14020 4560
L14020 4050
L13970 4120
L13930 4170
L13880 4190
" />
</g>
<g style="fill:#840000; fill-opacity:0.0; 
stroke:#840000; stroke-width:100; stroke-opacity:1; 
stroke-linecap:round; stroke-linejoin:round;">
</g>
<g style="fill:#840000; fill-opacity:0.0; 
stroke:#840000; stroke-width:60; stroke-opacity:1; 
stroke-linecap:round; stroke-linejoin:round;">
<path d="M33560 4090
L33580 4070
L33630 4050
L33750 4050
L33800 4070
L33820 4090
L33850 4140
L33850 4190
L33820 4260
L33530 4560
L33850 4560
" />
</g>
<g style="fill:#840000; fill-opacity:0.0; 
stroke:#840000; stroke-width:100; stroke-opacity:1; 
stroke-linecap:round; stroke-linejoin:round;">
</g>
<g style="fill:#840000; fill-opacity:0.0; 
stroke:#840000; stroke-width:60; stroke-opacity:1; 
stroke-linecap:round; stroke-linejoin:round;">
<path d="M53220 4050
L53540 4050
L53370 4240
L53440 4240
L53490 4260
L53510 4290
L53540 4340
L53540 4460
L53510 4510
L53490 4530
L53440 4560
L53300 4560
L53250 4530
L53220 4510
" />
</g>
<g style="fill:#840000; fill-opacity:0.0; 
stroke:#840000; stroke-width:100; stroke-opacity:1; 
stroke-linecap:round; stroke-linejoin:round;">
</g>
<g style="fill:#840000; fill-opacity:0.0; 
stroke:#840000; stroke-width:60; stroke-opacity:1; 
stroke-linecap:round; stroke-linejoin:round;">
<path d="M73170 4220
L73170 4560
" />
<path d="M73050 4020
L72930 4390
L73240 4390
" />
</g>
<g style="fill:#840000; fill-opacity:0.0; 
stroke:#840000; stroke-width:100; stroke-opacity:1; 
stroke-linecap:round; stroke-linejoin:round;">
</g>
<g style="fill:#840000; fill-opacity:0.0; 
stroke:#840000; stroke-width:60; stroke-opacity:1; 
stroke-linecap:round; stroke-linejoin:round;">
<path d="M92880 4050
L92640 4050
L92620 4290
L92640 4260
L92690 4240
L92810 4240
L92860 4260
L92880 4290
L92910 4340
L92910 4460
L92880 4510
L92860 4530
L92810 4560
L92690 4560
L92640 4530
L92620 4510
" />
</g>
<g style="fill:#840000; fill-opacity:0.0; 
stroke:#840000; stroke-width:100; stroke-opacity:1; 
stroke-linecap:round; stroke-linejoin:round;">
</g>
<g style="fill:#840000; fill-opacity:0.0; 
stroke:#840000; stroke-width:60; stroke-opacity:1; 
stroke-linecap:round; stroke-linejoin:round;">
<path d="M112540 4050
L112440 4050
L112390 4070
L112370 4090
L112320 4170
L112300 4260
L112300 4460
L112320 4510
L112350 4530
L112390 4560
L112490 4560
L112540 4530
L112560 4510
L112590 4460
L112590 4340
L112560 4290
L112540 4260
L112490 4240
L112390 4240
L112350 4260
L112320 4290
L112300 4340
" />
</g>
<g style="fill:#840000; fill-opacity:0.0; 
stroke:#840000; stroke-width:100; stroke-opacity:1; 
stroke-linecap:round; stroke-linejoin:round;">
</g>
<g style="fill:#840000; fill-opacity:0.0; 
stroke:#840000; stroke-width:60; stroke-opacity:1; 
stroke-linecap:round; stroke-linejoin:round;">
<path d="M23620 77960
L23620 78740
" />
</g>
<g style="fill:#840000; fill-opacity:0.0; 
stroke:#840000; stroke-width:100; stroke-opacity:1; 
stroke-linecap:round; stroke-linejoin:round;">
</g>
<g style="fill:#840000; fill-opacity:0.0; 
stroke:#840000; stroke-width:60; stroke-opacity:1; 
stroke-linecap:round; stroke-linejoin:round;">
<path d="M43310 77960
L43310 78740
" />
</g>
<g style="fill:#840000; fill-opacity:0.0; 
stroke:#840000; stroke-width:100; stroke-opacity:1; 
stroke-linecap:round; stroke-linejoin:round;">
</g>
<g style="fill:#840000; fill-opacity:0.0; 
stroke:#840000; stroke-width:60; stroke-opacity:1; 
stroke-linecap:round; stroke-linejoin:round;">
<path d="M62990 77960
L62990 78740
" />
</g>
<g style="fill:#840000; fill-opacity:0.0; 
stroke:#840000; stroke-width:100; stroke-opacity:1; 
stroke-linecap:round; stroke-linejoin:round;">
</g>
<g style="fill:#840000; fill-opacity:0.0; 
stroke:#840000; stroke-width:60; stroke-opacity:1; 
stroke-linecap:round; stroke-linejoin:round;">
<path d="M82680 77960
L82680 78740
" />
</g>
<g style="fill:#840000; fill-opacity:0.0; 
stroke:#840000; stroke-width:100; stroke-opacity:1; 
stroke-linecap:round; stroke-linejoin:round;">
</g>
<g style="fill:#840000; fill-opacity:0.0; 
stroke:#840000; stroke-width:60; stroke-opacity:1; 
stroke-linecap:round; stroke-linejoin:round;">
<path d="M102360 77960
L102360 78740
" />
</g>
<g style="fill:#840000; fill-opacity:0.0; 
stroke:#840000; stroke-width:100; stroke-opacity:1; 
stroke-linecap:round; stroke-linejoin:round;">
</g>
<g style="fill:#840000; fill-opacity:0.0; 
stroke:#840000; stroke-width:60; stroke-opacity:1; 
stroke-linecap:round; stroke-linejoin:round;">
<path d="M14170 78580
L13880 78580
" />
<path d="M14020 78580
L14020 78070
L13970 78140
L13930 78190
L13880 78210
" />
</g>
<g style="fill:#840000; fill-opacity:0.0; 
stroke:#840000; stroke-width:100; stroke-opacity:1; 
stroke-linecap:round; stroke-linejoin:round;">
</g>
<g style="fill:#840000; fill-opacity:0.0; 
stroke:#840000; stroke-width:60; stroke-opacity:1; 
stroke-linecap:round; stroke-linejoin:round;">
<path d="M33560 78110
L33580 78090
L33630 78070
L33750 78070
L33800 78090
L33820 78110
L33850 78160
L33850 78210
L33820 78280
L33530 78580
L33850 78580
" />
</g>
<g style="fill:#840000; fill-opacity:0.0; 
stroke:#840000; stroke-width:100; stroke-opacity:1; 
stroke-linecap:round; stroke-linejoin:round;">
</g>
<g style="fill:#840000; fill-opacity:0.0; 
stroke:#840000; stroke-width:60; stroke-opacity:1; 
stroke-linecap:round; stroke-linejoin:round;">
<path d="M53220 78070
L53540 78070
L53370 78260
L53440 78260
L53490 78280
L53510 78310
L53540 78360
L53540 78480
L53510 78530
L53490 78550
L53440 78580
L53300 78580
L53250 78550
L53220 78530
" />
</g>
<g style="fill:#840000; fill-opacity:0.0; 
stroke:#840000; stroke-width:100; stroke-opacity:1; 
stroke-linecap:round; stroke-linejoin:round;">
</g>
<g style="fill:#840000; fill-opacity:0.0; 
stroke:#840000; stroke-width:60; stroke-opacity:1; 
stroke-linecap:round; stroke-linejoin:round;">
<path d="M73170 78240
L73170 78580
" />
<path d="M73050 78040
L72930 78410
L73240 78410
" />
</g>
<g style="fill:#840000; fill-opacity:0.0; 
stroke:#840000; stroke-width:100; stroke-opacity:1; 
stroke-linecap:round; stroke-linejoin:round;">
</g>
<g style="fill:#840000; fill-opacity:0.0; 
stroke:#840000; stroke-width:60; stroke-opacity:1; 
stroke-linecap:round; stroke-linejoin:round;">
<path d="M92880 78070
L92640 78070
L92620 78310
L92640 78280
L92690 78260
L92810 78260
L92860 78280
L92880 78310
L92910 78360
L92910 78480
L92880 78530
L92860 78550
L92810 78580
L92690 78580
L92640 78550
L92620 78530
" />
</g>
<g style="fill:#840000; fill-opacity:0.0; 
stroke:#840000; stroke-width:100; stroke-opacity:1; 
stroke-linecap:round; stroke-linejoin:round;">
</g>
<g style="fill:#840000; fill-opacity:0.0; 
stroke:#840000; stroke-width:60; stroke-opacity:1; 
stroke-linecap:round; stroke-linejoin:round;">
<path d="M112540 78070
L112440 78070
L112390 78090
L112370 78110
L112320 78190
L112300 78280
L112300 78480
L112320 78530
L112350 78550
L112390 78580
L112490 78580
L112540 78550
L112560 78530
L112590 78480
L112590 78360
L112560 78310
L112540 78280
L112490 78260
L112390 78260
L112350 78280
L112320 78310
L112300 78360
" />
</g>
<g style="fill:#840000; fill-opacity:0.0; 
stroke:#840000; stroke-width:100; stroke-opacity:1; 
stroke-linecap:round; stroke-linejoin:round;">
</g>
<g style="fill:#840000; fill-opacity:0.0; 
stroke:#840000; stroke-width:60; stroke-opacity:1; 
stroke-linecap:round; stroke-linejoin:round;">
<path d="M3940 23620
L4720 23620
" />
</g>
<g style="fill:#840000; fill-opacity:0.0; 
stroke:#840000; stroke-width:100; stroke-opacity:1; 
stroke-linecap:round; stroke-linejoin:round;">
</g>
<g style="fill:#840000; fill-opacity:0.0; 
stroke:#840000; stroke-width:60; stroke-opacity:1; 
stroke-linecap:round; stroke-linejoin:round;">
<path d="M3940 43310
L4720 43310
" />
</g>
<g style="fill:#840000; fill-opacity:0.0; 
stroke:#840000; stroke-width:100; stroke-opacity:1; 
stroke-linecap:round; stroke-linejoin:round;">
</g>
<g style="fill:#840000; fill-opacity:0.0; 
stroke:#840000; stroke-width:60; stroke-opacity:1; 
stroke-linecap:round; stroke-linejoin:round;">
<path d="M3940 62990
L4720 62990
" />
</g>
<g style="fill:#840000; fill-opacity:0.0; 
stroke:#840000; stroke-width:100; stroke-opacity:1; 
stroke-linecap:round; stroke-linejoin:round;">
</g>
<g style="fill:#840000; fill-opacity:0.0; 
stroke:#840000; stroke-width:60; stroke-opacity:1; 
stroke-linecap:round; stroke-linejoin:round;">
<path d="M4210 13860
L4450 13860
" />
<path d="M4160 14010
L4330 13500
L4500 14010
" />
</g>
<g style="fill:#840000; fill-opacity:0.0; 
stroke:#840000; stroke-width:100; stroke-opacity:1; 
stroke-linecap:round; stroke-linejoin:round;">
</g>
<g style="fill:#840000; fill-opacity:0.0; 
stroke:#840000; stroke-width:60; stroke-opacity:1; 
stroke-linecap:round; stroke-linejoin:round;">
<path d="M4370 33420
L4440 33440
L4470 33470
L4490 33520
L4490 33590
L4470 33640
L4440 33660
L4400 33690
L4200 33690
L4200 33180
L4370 33180
L4420 33200
L4440 33220
L4470 33270
L4470 33320
L4440 33370
L4420 33390
L4370 33420
L4200 33420
" />
</g>
<g style="fill:#840000; fill-opacity:0.0; 
stroke:#840000; stroke-width:100; stroke-opacity:1; 
stroke-linecap:round; stroke-linejoin:round;">
</g>
<g style="fill:#840000; fill-opacity:0.0; 
stroke:#840000; stroke-width:60; stroke-opacity:1; 
stroke-linecap:round; stroke-linejoin:round;">
<path d="M4490 53330
L4470 53350
L4400 53380
L4350 53380
L4270 53350
L4230 53300
L4200 53250
L4180 53160
L4180 53080
L4200 52990
L4230 52940
L4270 52890
L4350 52870
L4400 52870
L4470 52890
L4490 52910
" />
</g>
<g style="fill:#840000; fill-opacity:0.0; 
stroke:#840000; stroke-width:100; stroke-opacity:1; 
stroke-linecap:round; stroke-linejoin:round;">
</g>
<g style="fill:#840000; fill-opacity:0.0; 
stroke:#840000; stroke-width:60; stroke-opacity:1; 
stroke-linecap:round; stroke-linejoin:round;">
<path d="M4200 73060
L4200 72550
L4320 72550
L4400 72570
L4440 72620
L4470 72670
L4490 72760
L4490 72840
L4470 72930
L4440 72980
L4400 73030
L4320 73060
L4200 73060
" />
</g>
<g style="fill:#840000; fill-opacity:0.0; 
stroke:#840000; stroke-width:100; stroke-opacity:1; 
stroke-linecap:round; stroke-linejoin:round;">
</g>
<g style="fill:#840000; fill-opacity:0.0; 
stroke:#840000; stroke-width:60; stroke-opacity:1; 
stroke-linecap:round; stroke-linejoin:round;">
<path d="M112990 23620
L112210 23620
" />
</g>
<g style="fill:#840000; fill-opacity:0.0; 
stroke:#840000; stroke-width:100; stroke-opacity:1; 
stroke-linecap:round; stroke-linejoin:round;">
</g>
<g style="fill:#840000; fill-opacity:0.0; 
stroke:#840000; stroke-width:60; stroke-opacity:1; 
stroke-linecap:round; stroke-linejoin:round;">
<path d="M112990 43310
L112210 43310
" />
</g>
<g style="fill:#840000; fill-opacity:0.0; 
stroke:#840000; stroke-width:100; stroke-opacity:1; 
stroke-linecap:round; stroke-linejoin:round;">
</g>
<g style="fill:#840000; fill-opacity:0.0; 
stroke:#840000; stroke-width:60; stroke-opacity:1; 
stroke-linecap:round; stroke-linejoin:round;">
<path d="M112990 62990
L112210 62990
" />
</g>
<g style="fill:#840000; fill-opacity:0.0; 
stroke:#840000; stroke-width:100; stroke-opacity:1; 
stroke-linecap:round; stroke-linejoin:round;">
</g>
<g style="fill:#840000; fill-opacity:0.0; 
stroke:#840000; stroke-width:60; stroke-opacity:1; 
stroke-linecap:round; stroke-linejoin:round;">
<path d="M112480 13860
L112720 13860
" />
<path d="M112430 14010
L112600 13500
L112770 14010
" />
</g>
<g style="fill:#840000; fill-opacity:0.0; 
stroke:#840000; stroke-width:100; stroke-opacity:1; 
stroke-linecap:round; stroke-linejoin:round;">
</g>
<g style="fill:#840000; fill-opacity:0.0; 
stroke:#840000; stroke-width:60; stroke-opacity:1; 
stroke-linecap:round; stroke-linejoin:round;">
<path d="M112640 33420
L112710 33440
L112740 33470
L112760 33520
L112760 33590
L112740 33640
L112710 33660
L112670 33690
L112470 33690
L112470 33180
L112640 33180
L112690 33200
L112710 33220
L112740 33270
L112740 33320
L112710 33370
L112690 33390
L112640 33420
L112470 33420
" />
</g>
<g style="fill:#840000; fill-opacity:0.0; 
stroke:#840000; stroke-width:100; stroke-opacity:1; 
stroke-linecap:round; stroke-linejoin:round;">
</g>
<g style="fill:#840000; fill-opacity:0.0; 
stroke:#840000; stroke-width:60; stroke-opacity:1; 
stroke-linecap:round; stroke-linejoin:round;">
<path d="M112760 53330
L112740 53350
L112670 53380
L112620 53380
L112540 53350
L112500 53300
L112470 53250
L112450 53160
L112450 53080
L112470 52990
L112500 52940
L112540 52890
L112620 52870
L112670 52870
L112740 52890
L112760 52910
" />
</g>
<g style="fill:#840000; fill-opacity:0.0; 
stroke:#840000; stroke-width:100; stroke-opacity:1; 
stroke-linecap:round; stroke-linejoin:round;">
</g>
<g style="fill:#840000; fill-opacity:0.0; 
stroke:#840000; stroke-width:60; stroke-opacity:1; 
stroke-linecap:round; stroke-linejoin:round;">
<path d="M112470 73060
L112470 72550
L112590 72550
L112670 72570
L112710 72620
L112740 72670
L112760 72760
L112760 72840
L112740 72930
L112710 72980
L112670 73030
L112590 73060
L112470 73060
" />
</g>
<g style="fill:#840000; fill-opacity:0.0; 
stroke:#840000; stroke-width:100; stroke-opacity:1; 
stroke-linecap:round; stroke-linejoin:round;">
</g>
<g style="fill:#840000; fill-opacity:0.0; 
stroke:#840000; stroke-width:60; stroke-opacity:1; 
stroke-linecap:round; stroke-linejoin:round;">
<path d="M78880 76290
L78880 75700
L79020 75700
L79110 75730
L79160 75790
L79190 75840
L79220 75950
L79220 76040
L79190 76150
L79160 76210
L79110 76260
L79020 76290
L78880 76290
" />
<path d="M79720 76290
L79720 75980
L79700 75930
L79640 75900
L79530 75900
L79470 75930
" />
<path d="M79720 76260
L79670 76290
L79530 76290
L79470 76260
L79440 76210
L79440 76150
L79470 76100
L79530 76070
L79670 76070
L79720 76040
" />
<path d="M79920 75900
L80140 75900
" />
<path d="M80000 75700
L80000 76210
L80030 76260
L80080 76290
L80140 76290
" />
<path d="M80570 76260
L80510 76290
L80400 76290
L80340 76260
L80310 76210
L80310 75980
L80340 75930
L80400 75900
L80510 75900
L80570 75930
L80590 75980
L80590 76040
L80310 76100
" />
<path d="M80850 76240
L80880 76260
L80850 76290
L80820 76260
L80850 76240
L80850 76290
" />
<path d="M80850 75930
L80880 75950
L80850 75980
L80820 75950
L80850 75930
L80850 75980
" />
</g>
<g style="fill:#840000; fill-opacity:0.0; 
stroke:#840000; stroke-width:100; stroke-opacity:1; 
stroke-linecap:round; stroke-linejoin:round;">
</g>
<g style="fill:#840000; fill-opacity:0.0; 
stroke:#840000; stroke-width:60; stroke-opacity:1; 
stroke-linecap:round; stroke-linejoin:round;">
<path d="M69690 76580
L112210 76580
" />
</g>
<g style="fill:#840000; fill-opacity:0.0; 
stroke:#840000; stroke-width:100; stroke-opacity:1; 
stroke-linecap:round; stroke-linejoin:round;">
</g>
<g style="fill:#840000; fill-opacity:0.0; 
stroke:#840000; stroke-width:60; stroke-opacity:1; 
stroke-linecap:round; stroke-linejoin:round;">
<path d="M70220 77390
L70220 76800
" />
<path d="M70560 77390
L70300 77050
" />
<path d="M70560 76800
L70220 77140
" />
<path d="M70810 77390
L70810 77000
" />
<path d="M70810 76800
L70780 76830
L70810 76860
L70840 76830
L70810 76800
L70810 76860
" />
<path d="M71430 77340
L71400 77360
L71320 77390
L71260 77390
L71170 77360
L71120 77310
L71090 77250
L71060 77140
L71060 77050
L71090 76940
L71120 76890
L71170 76830
L71260 76800
L71320 76800
L71400 76830
L71430 76860
" />
<path d="M71930 77390
L71930 77080
L71910 77030
L71850 77000
L71740 77000
L71680 77030
" />
<path d="M71930 77360
L71880 77390
L71740 77390
L71680 77360
L71650 77310
L71650 77250
L71680 77200
L71740 77170
L71880 77170
L71930 77140
" />
<path d="M72460 77390
L72460 76800
" />
<path d="M72460 77360
L72410 77390
L72290 77390
L72240 77360
L72210 77340
L72180 77280
L72180 77110
L72210 77050
L72240 77030
L72290 77000
L72410 77000
L72460 77030
" />
<path d="M73190 77080
L73390 77080
" />
<path d="M73470 77390
L73190 77390
L73190 76800
L73470 76800
" />
<path d="M73720 77340
L73750 77360
L73720 77390
L73690 77360
L73720 77340
L73720 77390
" />
<path d="M74000 77390
L74000 76800
L74140 76800
L74230 76830
L74280 76890
L74310 76940
L74340 77050
L74340 77140
L74310 77250
L74280 77310
L74230 77360
L74140 77390
L74000 77390
" />
<path d="M74590 77340
L74620 77360
L74590 77390
L74560 77360
L74590 77340
L74590 77390
" />
<path d="M74840 77220
L75120 77220
" />
<path d="M74790 77390
L74980 76800
L75180 77390
" />
<path d="M75380 77340
L75410 77360
L75380 77390
L75350 77360
L75380 77340
L75380 77390
" />
<path d="M76560 77390
L76560 76800
" />
<path d="M76620 77170
L76790 77390
" />
<path d="M76790 77000
L76560 77220
" />
<path d="M77040 77390
L77040 77000
" />
<path d="M77040 76800
L77010 76830
L77040 76860
L77070 76830
L77040 76800
L77040 76860
" />
<path d="M77570 77360
L77520 77390
L77400 77390
L77350 77360
L77320 77340
L77290 77280
L77290 77110
L77320 77050
L77350 77030
L77400 77000
L77520 77000
L77570 77030
" />
<path d="M78080 77390
L78080 77080
L78060 77030
L78000 77000
L77890 77000
L77830 77030
" />
<path d="M78080 77360
L78030 77390
L77890 77390
L77830 77360
L77800 77310
L77800 77250
L77830 77200
L77890 77170
L78030 77170
L78080 77140
" />
<path d="M78610 77390
L78610 76800
" />
<path d="M78610 77360
L78560 77390
L78440 77390
L78390 77360
L78360 77340
L78330 77280
L78330 77110
L78360 77050
L78390 77030
L78440 77000
L78560 77000
L78610 77030
" />
<path d="M79590 77000
L79590 77390
" />
<path d="M79450 76770
L79310 77200
L79680 77200
" />
<path d="M79900 77340
L79930 77360
L79900 77390
L79870 77360
L79900 77340
L79900 77390
" />
<path d="M80290 76800
L80350 76800
L80410 76830
L80430 76860
L80460 76910
L80490 77030
L80490 77170
L80460 77280
L80430 77340
L80410 77360
L80350 77390
L80290 77390
L80240 77360
L80210 77340
L80180 77280
L80150 77170
L80150 77030
L80180 76910
L80210 76860
L80240 76830
L80290 76800
" />
<path d="M80740 77340
L80770 77360
L80740 77390
L80710 77360
L80740 77340
L80740 77390
" />
<path d="M81300 76800
L81020 76800
L80990 77080
L81020 77050
L81080 77030
L81220 77030
L81270 77050
L81300 77080
L81330 77140
L81330 77280
L81300 77340
L81270 77360
L81220 77390
L81080 77390
L81020 77360
L80990 77340
" />
<path d="M81580 77170
L82030 77170
" />
<path d="M81810 77390
L81810 76940
" />
<path d="M82560 77390
L82560 76800
" />
<path d="M82560 77360
L82510 77390
L82390 77390
L82340 77360
L82310 77340
L82280 77280
L82280 77110
L82310 77050
L82340 77030
L82390 77000
L82510 77000
L82560 77030
" />
<path d="M82760 77000
L82980 77000
" />
<path d="M82840 77390
L82840 76890
L82870 76830
L82920 76800
L82980 76800
" />
<path d="M83150 77360
L83210 77390
L83320 77390
L83380 77360
L83410 77310
L83410 77280
L83380 77220
L83320 77200
L83240 77200
L83180 77170
L83150 77110
L83150 77080
L83180 77030
L83240 77000
L83320 77000
L83380 77030
" />
<path d="M83910 77000
L83910 77480
L83890 77530
L83860 77560
L83800 77590
L83720 77590
L83660 77560
" />
<path d="M83910 77360
L83860 77390
L83740 77390
L83690 77360
L83660 77340
L83630 77280
L83630 77110
L83660 77050
L83690 77030
L83740 77000
L83860 77000
L83910 77030
" />
<path d="M84500 77390
L84160 77390
" />
<path d="M84330 77390
L84330 76800
L84270 76890
L84220 76940
L84160 76970
" />
<path d="M84750 77170
L85200 77170
" />
<path d="M85730 77000
L85730 77390
" />
<path d="M85590 76770
L85450 77200
L85820 77200
" />
</g>
<g style="fill:#840000; fill-opacity:0.0; 
stroke:#840000; stroke-width:100; stroke-opacity:1; 
stroke-linecap:round; stroke-linejoin:round;">
</g>
<g style="fill:#840000; fill-opacity:0.0; 
stroke:#840000; stroke-width:60; stroke-opacity:1; 
stroke-linecap:round; stroke-linejoin:round;">
<path d="M69690 75400
L112210 75400
" />
</g>
<g style="fill:#840000; fill-opacity:0.0; 
stroke:#840000; stroke-width:100; stroke-opacity:1; 
stroke-linecap:round; stroke-linejoin:round;">
</g>
<g style="fill:#840000; fill-opacity:0.0; 
stroke:#840000; stroke-width:120; stroke-opacity:1; 
stroke-linecap:round; stroke-linejoin:round;">
<path d="M104020 76290
L103820 76010
" />
<path d="M103680 76290
L103680 75700
L103910 75700
L103960 75730
L103990 75760
L104020 75810
L104020 75900
L103990 75950
L103960 75980
L103910 76010
L103680 76010
" />
<path d="M104500 76260
L104440 76290
L104330 76290
L104270 76260
L104240 76210
L104240 75980
L104270 75930
L104330 75900
L104440 75900
L104500 75930
L104520 75980
L104520 76040
L104240 76100
" />
<path d="M104720 75900
L104860 76290
L105010 75900
" />
<path d="M105230 76240
L105260 76260
L105230 76290
L105200 76260
L105230 76240
L105230 76290
" />
<path d="M105230 75930
L105260 75950
L105230 75980
L105200 75950
L105230 75930
L105230 75980
" />
</g>
<g style="fill:#840000; fill-opacity:0.0; 
stroke:#840000; stroke-width:100; stroke-opacity:1; 
stroke-linecap:round; stroke-linejoin:round;">
</g>
<g style="fill:#840000; fill-opacity:0.0; 
stroke:#840000; stroke-width:60; stroke-opacity:1; 
stroke-linecap:round; stroke-linejoin:round;">
<path d="M70190 76260
L70280 76290
L70420 76290
L70470 76260
L70500 76240
L70530 76180
L70530 76120
L70500 76070
L70470 76040
L70420 76010
L70300 75980
L70250 75950
L70220 75930
L70190 75870
L70190 75810
L70220 75760
L70250 75730
L70300 75700
L70450 75700
L70530 75730
" />
<path d="M70780 76290
L70780 75900
" />
<path d="M70780 75700
L70750 75730
L70780 75760
L70810 75730
L70780 75700
L70780 75760
" />
<path d="M71000 75900
L71310 75900
L71000 76290
L71310 76290
" />
<path d="M71770 76260
L71710 76290
L71600 76290
L71540 76260
L71510 76210
L71510 75980
L71540 75930
L71600 75900
L71710 75900
L71770 75930
L71790 75980
L71790 76040
L71510 76100
" />
<path d="M72050 76240
L72080 76260
L72050 76290
L72020 76260
L72050 76240
L72050 76290
" />
<path d="M72050 75930
L72080 75950
L72050 75980
L72020 75950
L72050 75930
L72050 75980
" />
<path d="M72750 76120
L73030 76120
" />
<path d="M72700 76290
L72890 75700
L73090 76290
" />
<path d="M73540 75900
L73540 76290
" />
<path d="M73400 75670
L73260 76100
L73630 76100
" />
</g>
<g style="fill:#840000; fill-opacity:0.0; 
stroke:#840000; stroke-width:100; stroke-opacity:1; 
stroke-linecap:round; stroke-linejoin:round;">
</g>
<g style="fill:#840000; fill-opacity:0.0; 
stroke:#840000; stroke-width:60; stroke-opacity:1; 
stroke-linecap:round; stroke-linejoin:round;">
<path d="M103680 77390
L103680 76800
" />
<path d="M104210 77390
L104210 76800
" />
<path d="M104210 77360
L104160 77390
L104040 77390
L103990 77360
L103960 77340
L103930 77280
L103930 77110
L103960 77050
L103990 77030
L104040 77000
L104160 77000
L104210 77030
" />
<path d="M104490 77340
L104520 77360
L104490 77390
L104460 77360
L104490 77340
L104490 77390
" />
<path d="M104490 77030
L104520 77050
L104490 77080
L104460 77050
L104490 77030
L104490 77080
" />
<path d="M105190 76860
L105220 76830
L105280 76800
L105420 76800
L105470 76830
L105500 76860
L105530 76910
L105530 76970
L105500 77050
L105160 77390
L105530 77390
" />
<path d="M106200 76770
L105700 77530
" />
<path d="M106370 76860
L106400 76830
L106460 76800
L106600 76800
L106650 76830
L106680 76860
L106710 76910
L106710 76970
L106680 77050
L106340 77390
L106710 77390
" />
</g>
<g style="fill:#840000; fill-opacity:0.0; 
stroke:#840000; stroke-width:100; stroke-opacity:1; 
stroke-linecap:round; stroke-linejoin:round;">
</g>
<g style="fill:#840000; fill-opacity:0.0; 
stroke:#840000; stroke-width:60; stroke-opacity:1; 
stroke-linecap:round; stroke-linejoin:round;">
<path d="M69690 73820
L112210 73820
" />
</g>
<g style="fill:#840000; fill-opacity:0.0; 
stroke:#840000; stroke-width:100; stroke-opacity:1; 
stroke-linecap:round; stroke-linejoin:round;">
</g>
<g style="fill:#840000; fill-opacity:0.0; 
stroke:#840000; stroke-width:160; stroke-opacity:1; 
stroke-linecap:round; stroke-linejoin:round;">
<path d="M70260 74090
L70710 74090
" />
<path d="M70390 74880
L70480 74090
" />
<path d="M70880 74880
L70940 74360
" />
<path d="M70970 74090
L70930 74130
L70960 74170
L71010 74130
L70970 74090
L70960 74170
" />
<path d="M71210 74360
L71510 74360
" />
<path d="M71350 74090
L71270 74770
L71300 74840
L71370 74880
L71450 74880
" />
<path d="M71820 74880
L71750 74840
L71720 74770
L71800 74090
" />
<path d="M72420 74840
L72340 74880
L72190 74880
L72120 74840
L72090 74770
L72130 74470
L72180 74390
L72250 74360
L72400 74360
L72480 74390
L72510 74470
L72500 74540
L72110 74620
" />
<path d="M72800 74810
L72840 74840
L72800 74880
L72760 74840
L72800 74810
L72800 74880
" />
<path d="M72860 74390
L72890 74430
L72850 74470
L72810 74430
L72860 74390
L72850 74470
" />
</g>
<g style="fill:#840000; fill-opacity:0.0; 
stroke:#840000; stroke-width:100; stroke-opacity:1; 
stroke-linecap:round; stroke-linejoin:round;">
</g>
<g style="fill:#840000; fill-opacity:0.0; 
stroke:#840000; stroke-width:60; stroke-opacity:1; 
stroke-linecap:round; stroke-linejoin:round;">
<path d="M70420 73060
L70220 73060
" />
<path d="M70220 73370
L70220 72780
L70500 72780
" />
<path d="M70730 73370
L70730 72980
" />
<path d="M70730 72780
L70700 72810
L70730 72840
L70760 72810
L70730 72780
L70730 72840
" />
<path d="M71090 73370
L71040 73340
L71010 73290
L71010 72780
" />
<path d="M71550 73340
L71490 73370
L71380 73370
L71320 73340
L71290 73290
L71290 73060
L71320 73010
L71380 72980
L71490 72980
L71550 73010
L71570 73060
L71570 73120
L71290 73180
" />
<path d="M71830 73320
L71860 73340
L71830 73370
L71800 73340
L71830 73320
L71830 73370
" />
<path d="M71830 73010
L71860 73030
L71830 73060
L71800 73030
L71830 73010
L71830 73060
" />
<path d="M72480 72980
L72700 72980
" />
<path d="M72560 73370
L72560 72870
L72590 72810
L72640 72780
L72700 72780
" />
<path d="M72900 73370
L72900 72980
" />
<path d="M72900 72780
L72870 72810
L72900 72840
L72930 72810
L72900 72780
L72900 72840
" />
<path d="M73260 73370
L73210 73340
L73180 73290
L73180 72780
" />
<path d="M73720 73340
L73660 73370
L73550 73370
L73490 73340
L73460 73290
L73460 73060
L73490 73010
L73550 72980
L73660 72980
L73720 73010
L73740 73060
L73740 73120
L73460 73180
" />
<path d="M74280 72780
L74000 72780
L73970 73060
L74000 73030
L74060 73010
L74200 73010
L74250 73030
L74280 73060
L74310 73120
L74310 73260
L74280 73320
L74250 73340
L74200 73370
L74060 73370
L74000 73340
L73970 73320
" />
<path d="M74590 73370
L74700 73370
L74760 73340
L74790 73320
L74840 73230
L74870 73120
L74870 72890
L74840 72840
L74810 72810
L74760 72780
L74640 72780
L74590 72810
L74560 72840
L74530 72890
L74530 73030
L74560 73090
L74590 73120
L74640 73150
L74760 73150
L74810 73120
L74840 73090
L74870 73030
" />
<path d="M75370 72980
L75370 73370
" />
<path d="M75230 72750
L75090 73180
L75460 73180
" />
<path d="M75650 73200
L75930 73200
" />
<path d="M75600 73370
L75790 72780
L75990 73370
" />
<path d="M76530 73320
L76500 73340
L76420 73370
L76360 73370
L76270 73340
L76220 73290
L76190 73230
L76160 73120
L76160 73030
L76190 72920
L76220 72870
L76270 72810
L76360 72780
L76420 72780
L76500 72810
L76530 72840
" />
<path d="M77060 72780
L76780 72780
L76750 73060
L76780 73030
L76840 73010
L76980 73010
L77030 73030
L77060 73060
L77090 73120
L77090 73260
L77060 73320
L77030 73340
L76980 73370
L76840 73370
L76780 73340
L76750 73320
" />
<path d="M77340 73370
L77340 72780
L77480 72780
L77570 72810
L77620 72870
L77650 72920
L77680 73030
L77680 73120
L77650 73230
L77620 73290
L77570 73340
L77480 73370
L77340 73370
" />
<path d="M77870 72780
L78270 72780
L78010 73370
" />
<path d="M78490 73320
L78520 73340
L78490 73370
L78460 73340
L78490 73320
L78490 73370
" />
<path d="M78740 73340
L78800 73370
L78910 73370
L78970 73340
L79000 73290
L79000 73260
L78970 73200
L78910 73180
L78830 73180
L78770 73150
L78740 73090
L78740 73060
L78770 73010
L78830 72980
L78910 72980
L78970 73010
" />
<path d="M79500 73340
L79450 73370
L79330 73370
L79280 73340
L79250 73320
L79220 73260
L79220 73090
L79250 73030
L79280 73010
L79330 72980
L79450 72980
L79500 73010
" />
<path d="M79760 73370
L79760 72780
" />
<path d="M80010 73370
L80010 73060
L79990 73010
L79930 72980
L79840 72980
L79790 73010
L79760 73030
" />
</g>
<g style="fill:#840000; fill-opacity:0.0; 
stroke:#840000; stroke-width:100; stroke-opacity:1; 
stroke-linecap:round; stroke-linejoin:round;">
</g>
<g style="fill:#840000; fill-opacity:0.0; 
stroke:#840000; stroke-width:60; stroke-opacity:1; 
stroke-linecap:round; stroke-linejoin:round;">
<path d="M69690 71460
L112210 71460
" />
</g>
<g style="fill:#840000; fill-opacity:0.0; 
stroke:#840000; stroke-width:100; stroke-opacity:1; 
stroke-linecap:round; stroke-linejoin:round;">
</g>
<g style="fill:#840000; fill-opacity:0.0; 
stroke:#840000; stroke-width:60; stroke-opacity:1; 
stroke-linecap:round; stroke-linejoin:round;">
<path d="M70190 72280
L70280 72310
L70420 72310
L70470 72280
L70500 72260
L70530 72200
L70530 72140
L70500 72090
L70470 72060
L70420 72030
L70300 72000
L70250 71970
L70220 71950
L70190 71890
L70190 71830
L70220 71780
L70250 71750
L70300 71720
L70450 71720
L70530 71750
" />
<path d="M70780 72310
L70780 71720
" />
<path d="M71030 72310
L71030 72000
L71010 71950
L70950 71920
L70860 71920
L70810 71950
L70780 71970
" />
<path d="M71540 72280
L71480 72310
L71370 72310
L71310 72280
L71280 72230
L71280 72000
L71310 71950
L71370 71920
L71480 71920
L71540 71950
L71560 72000
L71560 72060
L71280 72120
" />
<path d="M72050 72280
L71990 72310
L71880 72310
L71820 72280
L71790 72230
L71790 72000
L71820 71950
L71880 71920
L71990 71920
L72050 71950
L72070 72000
L72070 72060
L71790 72120
" />
<path d="M72250 71920
L72470 71920
" />
<path d="M72330 71720
L72330 72230
L72360 72280
L72410 72310
L72470 72310
" />
<path d="M72670 72260
L72700 72280
L72670 72310
L72640 72280
L72670 72260
L72670 72310
" />
<path d="M72670 71950
L72700 71970
L72670 72000
L72640 71970
L72670 71950
L72670 72000
" />
<path d="M73820 71690
L73320 72450
" />
<path d="M73990 72280
L74080 72310
L74220 72310
L74270 72280
L74300 72260
L74330 72200
L74330 72140
L74300 72090
L74270 72060
L74220 72030
L74100 72000
L74050 71970
L74020 71950
L73990 71890
L73990 71830
L74020 71780
L74050 71750
L74100 71720
L74250 71720
L74330 71750
" />
<path d="M74580 72310
L74580 71720
" />
<path d="M74830 72310
L74830 72000
L74810 71950
L74750 71920
L74660 71920
L74610 71950
L74580 71970
" />
<path d="M75340 72280
L75280 72310
L75170 72310
L75110 72280
L75080 72230
L75080 72000
L75110 71950
L75170 71920
L75280 71920
L75340 71950
L75360 72000
L75360 72060
L75080 72120
" />
<path d="M75850 72280
L75790 72310
L75680 72310
L75620 72280
L75590 72230
L75590 72000
L75620 71950
L75680 71920
L75790 71920
L75850 71950
L75870 72000
L75870 72060
L75590 72120
" />
<path d="M76050 71920
L76270 71920
" />
<path d="M76130 71720
L76130 72230
L76160 72280
L76210 72310
L76270 72310
" />
<path d="M76750 71720
L76470 71720
L76440 72000
L76470 71970
L76530 71950
L76670 71950
L76720 71970
L76750 72000
L76780 72060
L76780 72200
L76750 72260
L76720 72280
L76670 72310
L76530 72310
L76470 72280
L76440 72260
" />
<path d="M77060 72310
L77170 72310
L77230 72280
L77260 72260
L77310 72170
L77340 72060
L77340 71830
L77310 71780
L77280 71750
L77230 71720
L77110 71720
L77060 71750
L77030 71780
L77000 71830
L77000 71970
L77030 72030
L77060 72060
L77110 72090
L77230 72090
L77280 72060
L77310 72030
L77340 71970
" />
<path d="M77840 71920
L77840 72310
" />
<path d="M77700 71690
L77560 72120
L77930 72120
" />
<path d="M78120 72140
L78400 72140
" />
<path d="M78070 72310
L78260 71720
L78460 72310
" />
<path d="M79000 72260
L78970 72280
L78890 72310
L78830 72310
L78740 72280
L78690 72230
L78660 72170
L78630 72060
L78630 71970
L78660 71860
L78690 71810
L78740 71750
L78830 71720
L78890 71720
L78970 71750
L79000 71780
" />
<path d="M79530 71720
L79250 71720
L79220 72000
L79250 71970
L79310 71950
L79450 71950
L79500 71970
L79530 72000
L79560 72060
L79560 72200
L79530 72260
L79500 72280
L79450 72310
L79310 72310
L79250 72280
L79220 72260
" />
<path d="M79810 72310
L79810 71720
L79950 71720
L80040 71750
L80090 71810
L80120 71860
L80150 71970
L80150 72060
L80120 72170
L80090 72230
L80040 72280
L79950 72310
L79810 72310
" />
<path d="M80340 71720
L80740 71720
L80480 72310
" />
<path d="M81380 71690
L80880 72450
" />
</g>
<g style="fill:#840000; fill-opacity:0.0; 
stroke:#840000; stroke-width:100; stroke-opacity:1; 
stroke-linecap:round; stroke-linejoin:round;">
</g>
<g style="fill:#840000; fill-opacity:0.0; 
stroke:#840000; stroke-width:60; stroke-opacity:1; 
stroke-linecap:round; stroke-linejoin:round;">
<path d="M77560 75400
L77560 76580
" />
</g>
<g style="fill:#840000; fill-opacity:0.0; 
stroke:#840000; stroke-width:100; stroke-opacity:1; 
stroke-linecap:round; stroke-linejoin:round;">
</g>
<g style="fill:#840000; fill-opacity:0.0; 
stroke:#840000; stroke-width:60; stroke-opacity:1; 
stroke-linecap:round; stroke-linejoin:round;">
<path d="M102760 75400
L102760 77960
" />
</g>
<g style="fill:#840000; fill-opacity:0.0; 
stroke:#840000; stroke-width:0; stroke-opacity:1; 
stroke-linecap:round; stroke-linejoin:round;">
</g>
<g style="fill:#840000; fill-opacity:0.0; 
stroke:#840000; stroke-width:100; stroke-opacity:1; 
stroke-linecap:round; stroke-linejoin:round;">
<rect x="31100" y="22500" width="800" height="2000" rx="0" />
</g>
<g style="fill:#840000; fill-opacity:0.0; 
stroke:#840000; stroke-width:60; stroke-opacity:1; 
stroke-linecap:round; stroke-linejoin:round;">
<path d="M31500 22500
L31500 22000
" />
<path d="M31500 24500
L31500 25000
" />
</g>
<g style="fill:#008484; fill-opacity:0.0; 
stroke:#008484; stroke-width:60; stroke-opacity:1; 
stroke-linecap:round; stroke-linejoin:round;">
<path d="M32560 23590
L32320 23750
" />
<path d="M32560 23870
L32060 23870
L32060 23680
L32080 23630
L32100 23610
L32150 23590
L32220 23590
L32270 23610
L32290 23630
L32320 23680
L32320 23870
" />
<path d="M32100 23390
L32080 23370
L32060 23320
L32060 23200
L32080 23160
L32100 23130
L32150 23110
L32200 23110
L32270 23130
L32560 23420
L32560 23110
" />
<path d="M31760 23800
L31760 24080
" />
<path d="M31760 23940
L31260 23940
L31330 23990
L31380 24040
L31400 24080
" />
<path d="M31260 23490
L31260 23440
L31280 23390
L31300 23370
L31350 23340
L31450 23320
L31570 23320
L31660 23340
L31710 23370
L31730 23390
L31760 23440
L31760 23490
L31730 23530
L31710 23560
L31660 23580
L31570 23600
L31450 23600
L31350 23580
L31300 23560
L31280 23530
L31260 23490
" />
<path d="M31760 23100
L31260 23100
" />
<path d="M31570 23050
L31760 22910
" />
<path d="M31420 22910
L31610 23100
" />
</g>
<g style="fill:#008484; fill-opacity:0.0; 
stroke:#008484; stroke-width:0; stroke-opacity:1; 
stroke-linecap:round; stroke-linejoin:round;">
</g>
<g style="fill:#840000; fill-opacity:0.0; 
stroke:#840000; stroke-width:0; stroke-opacity:1; 
stroke-linecap:round; stroke-linejoin:round;">
</g>
<g style="fill:#840000; fill-opacity:0.0; 
stroke:#840000; stroke-width:100; stroke-opacity:1; 
stroke-linecap:round; stroke-linejoin:round;">
<rect x="31100" y="26500" width="800" height="2000" rx="0" />
</g>
<g style="fill:#840000; fill-opacity:0.0; 
stroke:#840000; stroke-width:60; stroke-opacity:1; 
stroke-linecap:round; stroke-linejoin:round;">
<polyline fill="none;"
points="32500,27500
32100,27500
" /> 
</g>
<g style="fill:#840000; fill-opacity:1.0; 
stroke:#840000; stroke-width:60; stroke-opacity:1; 
stroke-linecap:round; stroke-linejoin:round;">
<polyline style="fill-rule:evenodd;"
points="31950,27500
32400,27300
32400,27700
" /> 
</g>
<g style="fill:#840000; fill-opacity:0.0; 
stroke:#840000; stroke-width:60; stroke-opacity:1; 
stroke-linecap:round; stroke-linejoin:round;">
<path d="M31500 26500
L31500 26000
" />
<path d="M32500 27500
L33000 27500
" />
<path d="M31500 28500
L31500 29000
" />
</g>
<g style="fill:#008484; fill-opacity:0.0; 
stroke:#008484; stroke-width:60; stroke-opacity:1; 
stroke-linecap:round; stroke-linejoin:round;">
<path d="M30010 27790
L29770 27950
" />
<path d="M30010 28070
L29510 28070
L29510 27880
L29530 27830
L29550 27810
L29600 27790
L29670 27790
L29720 27810
L29740 27830
L29770 27880
L29770 28070
" />
<path d="M29510 27640
L30010 27480
L29510 27310
" />
<path d="M30010 26880
L30010 27160
" />
<path d="M30010 27020
L29510 27020
L29580 27070
L29630 27120
L29650 27160
" />
<path d="M30300 28320
L30280 28300
L30260 28250
L30260 28130
L30280 28090
L30300 28060
L30350 28040
L30400 28040
L30470 28060
L30760 28350
L30760 28040
" />
<path d="M30260 27580
L30260 27820
L30490 27840
L30470 27820
L30450 27770
L30450 27650
L30470 27610
L30490 27580
L30540 27560
L30660 27560
L30710 27580
L30730 27610
L30760 27650
L30760 27770
L30730 27820
L30710 27840
" />
<path d="M30260 27250
L30260 27200
L30280 27150
L30300 27130
L30350 27100
L30450 27080
L30570 27080
L30660 27100
L30710 27130
L30730 27150
L30760 27200
L30760 27250
L30730 27290
L30710 27320
L30660 27340
L30570 27360
L30450 27360
L30350 27340
L30300 27320
L30280 27290
L30260 27250
" />
<path d="M30760 26860
L30260 26860
" />
<path d="M30570 26810
L30760 26670
" />
<path d="M30420 26670
L30610 26860
" />
</g>
<g style="fill:#008400; fill-opacity:0.0; 
stroke:#008400; stroke-width:60; stroke-opacity:1; 
stroke-linecap:round; stroke-linejoin:round;">
<path d="M31500 25000
L31500 26000
" />
</g>
<g style="fill:#008400; fill-opacity:0.0; 
stroke:#008400; stroke-width:0; stroke-opacity:1; 
stroke-linecap:round; stroke-linejoin:round;">
</g>
<g style="fill:#840000; fill-opacity:0.0; 
stroke:#840000; stroke-width:0; stroke-opacity:1; 
stroke-linecap:round; stroke-linejoin:round;">
</g>
<g style="fill:#840000; fill-opacity:0.0; 
stroke:#840000; stroke-width:200; stroke-opacity:1; 
stroke-linecap:round; stroke-linejoin:round;">
<polyline fill="none;"
points="30700,32800
32300,32800
" /> 
<polyline fill="none;"
points="30700,32200
32300,32200
" /> 
</g>
<g style="fill:#840000; fill-opacity:0.0; 
stroke:#840000; stroke-width:60; stroke-opacity:1; 
stroke-linecap:round; stroke-linejoin:round;">
<path d="M31500 32100
L31500 31000
" />
<path d="M31500 32900
L31500 34000
" />
</g>
<g style="fill:#008484; fill-opacity:0.0; 
stroke:#008484; stroke-width:60; stroke-opacity:1; 
stroke-linecap:round; stroke-linejoin:round;">
<path d="M32150 31710
L32130 31730
L32060 31760
L32010 31760
L31940 31730
L31890 31680
L31870 31640
L31850 31540
L31850 31470
L31870 31380
L31890 31330
L31940 31280
L32010 31260
L32060 31260
L32130 31280
L32150 31300
" />
<path d="M32630 31760
L32350 31760
" />
<path d="M32490 31760
L32490 31260
L32440 31330
L32390 31380
L32350 31400
" />
<path d="M32130 33760
L31850 33760
" />
<path d="M31990 33760
L31990 33260
L31940 33330
L31890 33380
L31850 33400
" />
<path d="M32440 33260
L32490 33260
L32540 33280
L32560 33300
L32590 33350
L32610 33450
L32610 33570
L32590 33660
L32560 33710
L32540 33730
L32490 33760
L32440 33760
L32400 33730
L32370 33710
L32350 33660
L32330 33570
L32330 33450
L32350 33350
L32370 33300
L32400 33280
L32440 33260
" />
<path d="M32830 33420
L32830 33920
" />
<path d="M33070 33680
L33090 33730
L33140 33760
" />
<path d="M32830 33680
L32850 33730
L32900 33760
L33000 33760
L33040 33730
L33070 33680
L33070 33420
" />
</g>
<g style="fill:#008484; fill-opacity:0.0; 
stroke:#008484; stroke-width:0; stroke-opacity:1; 
stroke-linecap:round; stroke-linejoin:round;">
</g>
<g style="fill:#840000; fill-opacity:0.0; 
stroke:#840000; stroke-width:0; stroke-opacity:1; 
stroke-linecap:round; stroke-linejoin:round;">
</g>
<g style="fill:#840000; fill-opacity:0.0; 
stroke:#840000; stroke-width:60; stroke-opacity:1; 
stroke-linecap:round; stroke-linejoin:round;">
<polyline fill="none;"
points="31500,35000
31500,35500
32000,35500
31500,36000
31000,35500
31500,35500
" /> 
</g>
<g style="fill:#008484; fill-opacity:0.0; 
stroke:#008484; stroke-width:60; stroke-opacity:1; 
stroke-linecap:round; stroke-linejoin:round;">
<path d="M31120 36280
L31070 36260
L31000 36260
L30930 36280
L30880 36330
L30860 36380
L30840 36470
L30840 36540
L30860 36640
L30880 36680
L30930 36730
L31000 36760
L31050 36760
L31120 36730
L31140 36710
L31140 36540
L31050 36540
" />
<path d="M31360 36760
L31360 36260
L31640 36760
L31640 36260
" />
<path d="M31880 36760
L31880 36260
L32000 36260
L32070 36280
L32120 36330
L32140 36380
L32160 36470
L32160 36540
L32140 36640
L32120 36680
L32070 36730
L32000 36760
L31880 36760
" />
</g>
<g style="fill:#008400; fill-opacity:0.0; 
stroke:#008400; stroke-width:60; stroke-opacity:1; 
stroke-linecap:round; stroke-linejoin:round;">
<path d="M31500 34000
L31500 35000
" />
</g>
<g style="fill:#008400; fill-opacity:0.0; 
stroke:#008400; stroke-width:0; stroke-opacity:1; 
stroke-linecap:round; stroke-linejoin:round;">
</g>
<g style="fill:#840000; fill-opacity:0.0; 
stroke:#840000; stroke-width:0; stroke-opacity:1; 
stroke-linecap:round; stroke-linejoin:round;">
</g>
<g style="fill:#FFFFC2; fill-opacity:0.0; 
stroke:#FFFFC2; stroke-width:0; stroke-opacity:1; 
stroke-linecap:round; stroke-linejoin:round;">
</g>
<g style="fill:#FFFFC2; fill-opacity:0.6; 
stroke:#FFFFC2; stroke-width:0; stroke-opacity:1; 
stroke-linecap:round; stroke-linejoin:round;">
<rect x="39000" y="27000" width="8000" height="5000" rx="0" />
</g>
<g style="fill:#840000; fill-opacity:0.6; 
stroke:#840000; stroke-width:0; stroke-opacity:1; 
stroke-linecap:round; stroke-linejoin:round;">
</g>
<g style="fill:#840000; fill-opacity:0.0; 
stroke:#840000; stroke-width:100; stroke-opacity:1; 
stroke-linecap:round; stroke-linejoin:round;">
<rect x="39000" y="27000" width="8000" height="5000" rx="0" />
</g>
<g style="fill:#840000; fill-opacity:0.0; 
stroke:#840000; stroke-width:60; stroke-opacity:1; 
stroke-linecap:round; stroke-linejoin:round;">
<path d="M43000 32000
L43000 33000
" />
</g>
<g style="fill:#008484; fill-opacity:0.0; 
stroke:#008484; stroke-width:60; stroke-opacity:1; 
stroke-linecap:round; stroke-linejoin:round;">
<path d="M42750 31220
L42730 31270
L42730 31340
L42750 31410
L42800 31460
L42850 31480
L42940 31500
L43010 31500
L43110 31480
L43150 31460
L43200 31410
L43230 31340
L43230 31290
L43200 31220
L43180 31200
L43010 31200
L43010 31290
" />
<path d="M43230 30980
L42730 30980
L43230 30700
L42730 30700
" />
<path d="M43230 30460
L42730 30460
L42730 30340
L42750 30270
L42800 30220
L42850 30200
L42940 30180
L43010 30180
L43110 30200
L43150 30220
L43200 30270
L43230 30340
L43230 30460
" />
</g>
<g style="fill:#840000; fill-opacity:0.0; 
stroke:#840000; stroke-width:60; stroke-opacity:1; 
stroke-linecap:round; stroke-linejoin:round;">
<path d="M42880 32360
L42880 32640
" />
<path d="M42880 32500
L42380 32500
L42450 32550
L42500 32600
L42520 32640
" />
<path d="M39000 30000
L38000 30000
" />
</g>
<g style="fill:#008484; fill-opacity:0.0; 
stroke:#008484; stroke-width:60; stroke-opacity:1; 
stroke-linecap:round; stroke-linejoin:round;">
<path d="M39450 29730
L39730 29730
" />
<path d="M39590 30230
L39590 29730
" />
<path d="M40180 30230
L40020 29990
" />
<path d="M39900 30230
L39900 29730
L40090 29730
L40140 29750
L40160 29770
L40180 29820
L40180 29890
L40160 29940
L40140 29960
L40090 29990
L39900 29990
" />
<path d="M40400 30230
L40400 29730
" />
<path d="M40900 29750
L40850 29730
L40780 29730
L40710 29750
L40660 29800
L40640 29850
L40620 29940
L40620 30010
L40640 30110
L40660 30150
L40710 30200
L40780 30230
L40830 30230
L40900 30200
L40920 30180
L40920 30010
L40830 30010
" />
<path d="M39400 29640
L41020 29640
" />
</g>
<g style="fill:#840000; fill-opacity:0.0; 
stroke:#840000; stroke-width:60; stroke-opacity:1; 
stroke-linecap:round; stroke-linejoin:round;">
<path d="M38360 29420
L38380 29400
L38430 29380
L38550 29380
L38590 29400
L38620 29420
L38640 29470
L38640 29520
L38620 29590
L38330 29880
L38640 29880
" />
<path d="M47000 30000
L48000 30000
" />
</g>
<g style="fill:#008484; fill-opacity:0.0; 
stroke:#008484; stroke-width:60; stroke-opacity:1; 
stroke-linecap:round; stroke-linejoin:round;">
<path d="M45390 29730
L45490 29730
L45540 29750
L45580 29800
L45610 29890
L45610 30060
L45580 30150
L45540 30200
L45490 30230
L45390 30230
L45350 30200
L45300 30150
L45280 30060
L45280 29890
L45300 29800
L45350 29750
L45390 29730
" />
<path d="M45820 29730
L45820 30130
L45840 30180
L45870 30200
L45910 30230
L46010 30230
L46060 30200
L46080 30180
L46100 30130
L46100 29730
" />
<path d="M46270 29730
L46550 29730
" />
<path d="M46410 30230
L46410 29730
" />
</g>
<g style="fill:#840000; fill-opacity:0.0; 
stroke:#840000; stroke-width:60; stroke-opacity:1; 
stroke-linecap:round; stroke-linejoin:round;">
<path d="M47330 29380
L47640 29380
L47470 29570
L47550 29570
L47590 29590
L47620 29610
L47640 29660
L47640 29780
L47620 29830
L47590 29850
L47550 29880
L47400 29880
L47360 29850
L47330 29830
" />
<path d="M47000 28000
L48000 28000
" />
</g>
<g style="fill:#008484; fill-opacity:0.0; 
stroke:#008484; stroke-width:60; stroke-opacity:1; 
stroke-linecap:round; stroke-linejoin:round;">
<path d="M44740 28230
L44580 27990
" />
<path d="M44460 28230
L44460 27730
L44650 27730
L44700 27750
L44720 27770
L44740 27820
L44740 27890
L44720 27940
L44700 27960
L44650 27990
L44460 27990
" />
<path d="M44960 27960
L45130 27960
" />
<path d="M45200 28230
L44960 28230
L44960 27730
L45200 27730
" />
<path d="M45390 28200
L45460 28230
L45580 28230
L45620 28200
L45650 28180
L45670 28130
L45670 28080
L45650 28040
L45620 28010
L45580 27990
L45480 27960
L45430 27940
L45410 27920
L45390 27870
L45390 27820
L45410 27770
L45430 27750
L45480 27730
L45600 27730
L45670 27750
" />
<path d="M45890 27960
L46060 27960
" />
<path d="M46130 28230
L45890 28230
L45890 27730
L46130 27730
" />
<path d="M46270 27730
L46550 27730
" />
<path d="M46410 28230
L46410 27730
" />
<path d="M44340 27640
L46600 27640
" />
</g>
<g style="fill:#840000; fill-opacity:0.0; 
stroke:#840000; stroke-width:60; stroke-opacity:1; 
stroke-linecap:round; stroke-linejoin:round;">
<path d="M47590 27540
L47590 27880
" />
<path d="M47470 27350
L47360 27710
L47660 27710
" />
<path d="M47000 31000
L48000 31000
" />
</g>
<g style="fill:#008484; fill-opacity:0.0; 
stroke:#008484; stroke-width:60; stroke-opacity:1; 
stroke-linecap:round; stroke-linejoin:round;">
<path d="M45080 31180
L45060 31200
L44990 31230
L44940 31230
L44870 31200
L44820 31150
L44800 31110
L44780 31010
L44780 30940
L44800 30850
L44820 30800
L44870 30750
L44940 30730
L44990 30730
L45060 30750
L45080 30770
" />
<path d="M45390 30730
L45490 30730
L45540 30750
L45580 30800
L45610 30890
L45610 31060
L45580 31150
L45540 31200
L45490 31230
L45390 31230
L45350 31200
L45300 31150
L45280 31060
L45280 30890
L45300 30800
L45350 30750
L45390 30730
" />
<path d="M45820 31230
L45820 30730
L46100 31230
L46100 30730
" />
<path d="M46270 30730
L46550 30730
" />
<path d="M46410 31230
L46410 30730
" />
</g>
<g style="fill:#840000; fill-opacity:0.0; 
stroke:#840000; stroke-width:60; stroke-opacity:1; 
stroke-linecap:round; stroke-linejoin:round;">
<path d="M47620 30380
L47380 30380
L47360 30610
L47380 30590
L47430 30570
L47550 30570
L47590 30590
L47620 30610
L47640 30660
L47640 30780
L47620 30830
L47590 30850
L47550 30880
L47430 30880
L47380 30850
L47360 30830
" />
<path d="M39000 31000
L38000 31000
" />
</g>
<g style="fill:#008484; fill-opacity:0.0; 
stroke:#008484; stroke-width:60; stroke-opacity:1; 
stroke-linecap:round; stroke-linejoin:round;">
<path d="M39450 30730
L39730 30730
" />
<path d="M39590 31230
L39590 30730
" />
<path d="M39900 31230
L39900 30730
" />
<path d="M39900 30960
L40180 30960
" />
<path d="M40180 31230
L40180 30730
" />
<path d="M40700 31230
L40540 30990
" />
<path d="M40420 31230
L40420 30730
L40610 30730
L40660 30750
L40680 30770
L40700 30820
L40700 30890
L40680 30940
L40660 30960
L40610 30990
L40420 30990
" />
<path d="M40920 30960
L41090 30960
" />
<path d="M41160 31230
L40920 31230
L40920 30730
L41160 30730
" />
<path d="M41350 31200
L41420 31230
L41540 31230
L41580 31200
L41610 31180
L41630 31130
L41630 31080
L41610 31040
L41580 31010
L41540 30990
L41440 30960
L41390 30940
L41370 30920
L41350 30870
L41350 30820
L41370 30770
L41390 30750
L41440 30730
L41560 30730
L41630 30750
" />
</g>
<g style="fill:#840000; fill-opacity:0.0; 
stroke:#840000; stroke-width:60; stroke-opacity:1; 
stroke-linecap:round; stroke-linejoin:round;">
<path d="M38590 30380
L38500 30380
L38450 30400
L38430 30420
L38380 30500
L38360 30590
L38360 30780
L38380 30830
L38400 30850
L38450 30880
L38550 30880
L38590 30850
L38620 30830
L38640 30780
L38640 30660
L38620 30610
L38590 30590
L38550 30570
L38450 30570
L38400 30590
L38380 30610
L38360 30660
" />
<path d="M39000 28000
L38000 28000
" />
</g>
<g style="fill:#008484; fill-opacity:0.0; 
stroke:#008484; stroke-width:60; stroke-opacity:1; 
stroke-linecap:round; stroke-linejoin:round;">
<path d="M39520 28230
L39520 27730
L39640 27730
L39710 27750
L39760 27800
L39780 27850
L39800 27940
L39800 28010
L39780 28110
L39760 28150
L39710 28200
L39640 28230
L39520 28230
" />
<path d="M40020 28230
L40020 27730
" />
<path d="M40240 28200
L40310 28230
L40430 28230
L40470 28200
L40500 28180
L40520 28130
L40520 28080
L40500 28040
L40470 28010
L40430 27990
L40330 27960
L40280 27940
L40260 27920
L40240 27870
L40240 27820
L40260 27770
L40280 27750
L40330 27730
L40450 27730
L40520 27750
" />
<path d="M41020 28180
L41000 28200
L40930 28230
L40880 28230
L40810 28200
L40760 28150
L40740 28110
L40720 28010
L40720 27940
L40740 27850
L40760 27800
L40810 27750
L40880 27730
L40930 27730
L41000 27750
L41020 27770
" />
<path d="M41240 28230
L41240 27730
" />
<path d="M41240 27960
L41520 27960
" />
<path d="M41520 28230
L41520 27730
" />
</g>
<g style="fill:#840000; fill-opacity:0.0; 
stroke:#840000; stroke-width:60; stroke-opacity:1; 
stroke-linecap:round; stroke-linejoin:round;">
<path d="M38330 27380
L38660 27380
L38450 27880
" />
<path d="M43000 27000
L43000 26000
" />
</g>
<g style="fill:#008484; fill-opacity:0.0; 
stroke:#008484; stroke-width:60; stroke-opacity:1; 
stroke-linecap:round; stroke-linejoin:round;">
<path d="M42730 28780
L43230 28620
L42730 28450
" />
<path d="M43230 28280
L42730 28280
L42730 28160
L42750 28090
L42800 28040
L42850 28020
L42940 28000
L43010 28000
L43110 28020
L43150 28040
L43200 28090
L43230 28160
L43230 28280
" />
<path d="M43230 27780
L42730 27780
L42730 27660
L42750 27590
L42800 27540
L42850 27520
L42940 27500
L43010 27500
L43110 27520
L43150 27540
L43200 27590
L43230 27660
L43230 27780
" />
</g>
<g style="fill:#840000; fill-opacity:0.0; 
stroke:#840000; stroke-width:60; stroke-opacity:1; 
stroke-linecap:round; stroke-linejoin:round;">
<path d="M42590 26550
L42570 26600
L42540 26620
L42500 26640
L42470 26640
L42420 26620
L42400 26600
L42380 26550
L42380 26450
L42400 26410
L42420 26380
L42470 26360
L42500 26360
L42540 26380
L42570 26410
L42590 26450
L42590 26550
L42610 26600
L42640 26620
L42690 26640
L42780 26640
L42830 26620
L42850 26600
L42880 26550
L42880 26450
L42850 26410
L42830 26380
L42780 26360
L42690 26360
L42640 26380
L42610 26410
L42590 26450
" />
</g>
<g style="fill:#008484; fill-opacity:0.0; 
stroke:#008484; stroke-width:60; stroke-opacity:1; 
stroke-linecap:round; stroke-linejoin:round;">
<path d="M41120 25510
L41120 25910
L41140 25960
L41170 25980
L41210 26010
L41310 26010
L41360 25980
L41380 25960
L41400 25910
L41400 25510
" />
<path d="M41900 26010
L41620 26010
" />
<path d="M41760 26010
L41760 25510
L41710 25580
L41660 25630
L41620 25650
" />
<path d="M39210 26760
L39210 26260
L39490 26760
L39490 26260
" />
<path d="M39730 26490
L39900 26490
" />
<path d="M39970 26760
L39730 26760
L39730 26260
L39970 26260
" />
<path d="M40420 26260
L40180 26260
L40160 26490
L40180 26470
L40230 26450
L40350 26450
L40390 26470
L40420 26490
L40440 26540
L40440 26660
L40420 26710
L40390 26730
L40350 26760
L40230 26760
L40180 26730
L40160 26710
" />
<path d="M40900 26260
L40660 26260
L40640 26490
L40660 26470
L40710 26450
L40830 26450
L40870 26470
L40900 26490
L40920 26540
L40920 26660
L40900 26710
L40870 26730
L40830 26760
L40710 26760
L40660 26730
L40640 26710
" />
<path d="M41380 26260
L41140 26260
L41120 26490
L41140 26470
L41190 26450
L41310 26450
L41350 26470
L41380 26490
L41400 26540
L41400 26660
L41380 26710
L41350 26730
L41310 26760
L41190 26760
L41140 26730
L41120 26710
" />
<path d="M41620 26760
L41620 26260
L41740 26260
L41810 26280
L41860 26330
L41880 26380
L41900 26470
L41900 26540
L41880 26640
L41860 26680
L41810 26730
L41740 26760
L41620 26760
" />
</g>
<g style="fill:#008400; fill-opacity:0.0; 
stroke:#008400; stroke-width:60; stroke-opacity:1; 
stroke-linecap:round; stroke-linejoin:round;">
<path d="M31500 31000
L38000 31000
" />
</g>
<g style="fill:#008400; fill-opacity:0.0; 
stroke:#008400; stroke-width:0; stroke-opacity:1; 
stroke-linecap:round; stroke-linejoin:round;">
</g>
<g style="fill:#840000; fill-opacity:0.0; 
stroke:#840000; stroke-width:0; stroke-opacity:1; 
stroke-linecap:round; stroke-linejoin:round;">
</g>
<g style="fill:#840000; fill-opacity:0.0; 
stroke:#840000; stroke-width:60; stroke-opacity:1; 
stroke-linecap:round; stroke-linejoin:round;">
<polyline fill="none;"
points="43000,35000
43000,35500
43500,35500
43000,36000
42500,35500
43000,35500
" /> 
</g>
<g style="fill:#008484; fill-opacity:0.0; 
stroke:#008484; stroke-width:60; stroke-opacity:1; 
stroke-linecap:round; stroke-linejoin:round;">
<path d="M42620 36280
L42570 36260
L42500 36260
L42430 36280
L42380 36330
L42360 36380
L42340 36470
L42340 36540
L42360 36640
L42380 36680
L42430 36730
L42500 36760
L42550 36760
L42620 36730
L42640 36710
L42640 36540
L42550 36540
" />
<path d="M42860 36760
L42860 36260
L43140 36760
L43140 36260
" />
<path d="M43380 36760
L43380 36260
L43500 36260
L43570 36280
L43620 36330
L43640 36380
L43660 36470
L43660 36540
L43640 36640
L43620 36680
L43570 36730
L43500 36760
L43380 36760
" />
</g>
<g style="fill:#008400; fill-opacity:0.0; 
stroke:#008400; stroke-width:60; stroke-opacity:1; 
stroke-linecap:round; stroke-linejoin:round;">
<path d="M43000 33000
L43000 35000
" />
</g>
<g style="fill:#008400; fill-opacity:0.0; 
stroke:#008400; stroke-width:0; stroke-opacity:1; 
stroke-linecap:round; stroke-linejoin:round;">
</g>
<g style="fill:#840000; fill-opacity:0.0; 
stroke:#840000; stroke-width:0; stroke-opacity:1; 
stroke-linecap:round; stroke-linejoin:round;">
</g>
<g style="fill:#840000; fill-opacity:0.0; 
stroke:#840000; stroke-width:60; stroke-opacity:1; 
stroke-linecap:round; stroke-linejoin:round;">
<circle cx="43000" cy="23750" r="250" /> 
<polyline fill="none;"
points="43000,24500
43000,24000
" /> 
</g>
<g style="fill:#008484; fill-opacity:0.0; 
stroke:#008484; stroke-width:60; stroke-opacity:1; 
stroke-linecap:round; stroke-linejoin:round;">
<path d="M42340 22760
L42500 23260
L42670 22760
" />
<path d="M43120 23210
L43100 23230
L43030 23260
L42980 23260
L42910 23230
L42860 23180
L42840 23140
L42820 23040
L42820 22970
L42840 22880
L42860 22830
L42910 22780
L42980 22760
L43030 22760
L43100 22780
L43120 22800
" />
<path d="M43620 23210
L43600 23230
L43530 23260
L43480 23260
L43410 23230
L43360 23180
L43340 23140
L43320 23040
L43320 22970
L43340 22880
L43360 22830
L43410 22780
L43480 22760
L43530 22760
L43600 22780
L43620 22800
" />
</g>
<g style="fill:#008400; fill-opacity:0.0; 
stroke:#008400; stroke-width:60; stroke-opacity:1; 
stroke-linecap:round; stroke-linejoin:round;">
<path d="M38000 28000
L37000 28000
" />
<path d="M37000 28000
L37000 21500
" />
<path d="M37000 21500
L31500 21500
" />
<path d="M31500 21000
L31500 22000
" />
</g>
<g style="fill:#008400; fill-opacity:0.0; 
stroke:#008400; stroke-width:0; stroke-opacity:1; 
stroke-linecap:round; stroke-linejoin:round;">
</g>
<g style="fill:#840000; fill-opacity:0.0; 
stroke:#840000; stroke-width:0; stroke-opacity:1; 
stroke-linecap:round; stroke-linejoin:round;">
</g>
<g style="fill:#840000; fill-opacity:0.0; 
stroke:#840000; stroke-width:100; stroke-opacity:1; 
stroke-linecap:round; stroke-linejoin:round;">
<rect x="31100" y="18500" width="800" height="2000" rx="0" />
</g>
<g style="fill:#840000; fill-opacity:0.0; 
stroke:#840000; stroke-width:60; stroke-opacity:1; 
stroke-linecap:round; stroke-linejoin:round;">
<path d="M31500 18500
L31500 18000
" />
<path d="M31500 20500
L31500 21000
" />
</g>
<g style="fill:#008484; fill-opacity:0.0; 
stroke:#008484; stroke-width:60; stroke-opacity:1; 
stroke-linecap:round; stroke-linejoin:round;">
<path d="M32560 19590
L32320 19750
" />
<path d="M32560 19870
L32060 19870
L32060 19680
L32080 19630
L32100 19610
L32150 19590
L32220 19590
L32270 19610
L32290 19630
L32320 19680
L32320 19870
" />
<path d="M32560 19110
L32560 19390
" />
<path d="M32560 19250
L32060 19250
L32130 19300
L32180 19350
L32200 19390
" />
<path d="M31760 19560
L31760 19840
" />
<path d="M31760 19700
L31260 19700
L31330 19750
L31380 19800
L31400 19840
" />
<path d="M31760 19340
L31260 19340
" />
<path d="M31570 19290
L31760 19150
" />
<path d="M31420 19150
L31610 19340
" />
</g>
<g style="fill:#008484; fill-opacity:0.0; 
stroke:#008484; stroke-width:0; stroke-opacity:1; 
stroke-linecap:round; stroke-linejoin:round;">
</g>
<g style="fill:#008400; fill-opacity:0.0; 
stroke:#008400; stroke-width:0; stroke-opacity:1; 
stroke-linecap:round; stroke-linejoin:round;">
</g>
<g style="fill:#008400; fill-opacity:1.0; 
stroke:#008400; stroke-width:100; stroke-opacity:1; 
stroke-linecap:round; stroke-linejoin:round;">
<circle cx="31500" cy="21500" r="200" /> 
</g>
<g style="fill:#008400; fill-opacity:1.0; 
stroke:#008400; stroke-width:0; stroke-opacity:1; 
stroke-linecap:round; stroke-linejoin:round;">
</g>
<g style="fill:#840000; fill-opacity:1.0; 
stroke:#840000; stroke-width:0; stroke-opacity:1; 
stroke-linecap:round; stroke-linejoin:round;">
</g>
<g style="fill:#840000; fill-opacity:0.0; 
stroke:#840000; stroke-width:60; stroke-opacity:1; 
stroke-linecap:round; stroke-linejoin:round;">
<circle cx="31500" cy="15750" r="250" /> 
<polyline fill="none;"
points="31500,16500
31500,16000
" /> 
</g>
<g style="fill:#008484; fill-opacity:0.0; 
stroke:#008484; stroke-width:60; stroke-opacity:1; 
stroke-linecap:round; stroke-linejoin:round;">
<path d="M30840 14760
L31000 15260
L31170 14760
" />
<path d="M31620 15210
L31600 15230
L31530 15260
L31480 15260
L31410 15230
L31360 15180
L31340 15140
L31320 15040
L31320 14970
L31340 14880
L31360 14830
L31410 14780
L31480 14760
L31530 14760
L31600 14780
L31620 14800
" />
<path d="M32120 15210
L32100 15230
L32030 15260
L31980 15260
L31910 15230
L31860 15180
L31840 15140
L31820 15040
L31820 14970
L31840 14880
L31860 14830
L31910 14780
L31980 14760
L32030 14760
L32100 14780
L32120 14800
" />
</g>
<g style="fill:#008400; fill-opacity:0.0; 
stroke:#008400; stroke-width:60; stroke-opacity:1; 
stroke-linecap:round; stroke-linejoin:round;">
<path d="M31500 16500
L31500 18000
" />
<path d="M43000 24500
L43000 26000
" />
</g>
<g style="fill:#008400; fill-opacity:0.0; 
stroke:#008400; stroke-width:0; stroke-opacity:1; 
stroke-linecap:round; stroke-linejoin:round;">
</g>
<g style="fill:#840000; fill-opacity:0.0; 
stroke:#840000; stroke-width:0; stroke-opacity:1; 
stroke-linecap:round; stroke-linejoin:round;">
</g>
<g style="fill:#840000; fill-opacity:0.0; 
stroke:#840000; stroke-width:60; stroke-opacity:1; 
stroke-linecap:round; stroke-linejoin:round;">
<circle cx="50000" cy="25250" r="250" /> 
<polyline fill="none;"
points="50000,26000
50000,25500
" /> 
</g>
<g style="fill:#008484; fill-opacity:0.0; 
stroke:#008484; stroke-width:60; stroke-opacity:1; 
stroke-linecap:round; stroke-linejoin:round;">
<path d="M49340 24260
L49500 24760
L49670 24260
" />
<path d="M50120 24710
L50100 24730
L50030 24760
L49980 24760
L49910 24730
L49860 24680
L49840 24640
L49820 24540
L49820 24470
L49840 24380
L49860 24330
L49910 24280
L49980 24260
L50030 24260
L50100 24280
L50120 24300
" />
<path d="M50620 24710
L50600 24730
L50530 24760
L50480 24760
L50410 24730
L50360 24680
L50340 24640
L50320 24540
L50320 24470
L50340 24380
L50360 24330
L50410 24280
L50480 24260
L50530 24260
L50600 24280
L50620 24300
" />
</g>
<g style="fill:#008400; fill-opacity:0.0; 
stroke:#008400; stroke-width:60; stroke-opacity:1; 
stroke-linecap:round; stroke-linejoin:round;">
<path d="M48000 28000
L50000 28000
" />
<path d="M50000 28000
L50000 26000
" />
</g>
<g style="fill:#008400; fill-opacity:0.0; 
stroke:#008400; stroke-width:0; stroke-opacity:1; 
stroke-linecap:round; stroke-linejoin:round;">
</g>
<g style="fill:#840000; fill-opacity:0.0; 
stroke:#840000; stroke-width:0; stroke-opacity:1; 
stroke-linecap:round; stroke-linejoin:round;">
</g>
<g style="fill:#840000; fill-opacity:0.0; 
stroke:#840000; stroke-width:100; stroke-opacity:1; 
stroke-linecap:round; stroke-linejoin:round;">
<rect x="50500" y="29600" width="2000" height="800" rx="0" />
</g>
<g style="fill:#840000; fill-opacity:0.0; 
stroke:#840000; stroke-width:60; stroke-opacity:1; 
stroke-linecap:round; stroke-linejoin:round;">
<path d="M52500 30000
L53000 30000
" />
<path d="M50500 30000
L50000 30000
" />
</g>
<g style="fill:#008484; fill-opacity:0.0; 
stroke:#008484; stroke-width:60; stroke-opacity:1; 
stroke-linecap:round; stroke-linejoin:round;">
<path d="M51410 31060
L51250 30820
" />
<path d="M51130 31060
L51130 30560
L51320 30560
L51370 30580
L51390 30600
L51410 30650
L51410 30720
L51390 30770
L51370 30790
L51320 30820
L51130 30820
" />
<path d="M51580 30560
L51890 30560
L51720 30750
L51800 30750
L51840 30770
L51870 30790
L51890 30840
L51890 30960
L51870 31010
L51840 31030
L51800 31060
L51650 31060
L51610 31030
L51580 31010
" />
<path d="M50880 29800
L50900 29780
L50950 29760
L51070 29760
L51110 29780
L51140 29800
L51160 29850
L51160 29900
L51140 29970
L50850 30260
L51160 30260
" />
<path d="M51470 29760
L51520 29760
L51570 29780
L51590 29800
L51620 29850
L51640 29950
L51640 30070
L51620 30160
L51590 30210
L51570 30230
L51520 30260
L51470 30260
L51430 30230
L51400 30210
L51380 30160
L51360 30070
L51360 29950
L51380 29850
L51400 29800
L51430 29780
L51470 29760
" />
<path d="M51950 29760
L52000 29760
L52050 29780
L52070 29800
L52100 29850
L52120 29950
L52120 30070
L52100 30160
L52070 30210
L52050 30230
L52000 30260
L51950 30260
L51910 30230
L51880 30210
L51860 30160
L51840 30070
L51840 29950
L51860 29850
L51880 29800
L51910 29780
L51950 29760
" />
</g>
<g style="fill:#008400; fill-opacity:0.0; 
stroke:#008400; stroke-width:60; stroke-opacity:1; 
stroke-linecap:round; stroke-linejoin:round;">
<path d="M48000 30000
L50000 30000
" />
</g>
<g style="fill:#008400; fill-opacity:0.0; 
stroke:#008400; stroke-width:0; stroke-opacity:1; 
stroke-linecap:round; stroke-linejoin:round;">
</g>
<g style="fill:#840000; fill-opacity:0.0; 
stroke:#840000; stroke-width:0; stroke-opacity:1; 
stroke-linecap:round; stroke-linejoin:round;">
</g>
<g style="fill:#840000; fill-opacity:0.0; 
stroke:#840000; stroke-width:80; stroke-opacity:1; 
stroke-linecap:round; stroke-linejoin:round;">
<polyline fill="none;"
points="55000,33000
54000,33000
" /> 
</g>
<g style="fill:#840000; fill-opacity:0.0; 
stroke:#840000; stroke-width:60; stroke-opacity:1; 
stroke-linecap:round; stroke-linejoin:round;">
<polyline fill="none;"
points="54500,33000
54500,32000
" /> 
</g>
<g style="fill:#840000; fill-opacity:0.0; 
stroke:#840000; stroke-width:80; stroke-opacity:1; 
stroke-linecap:round; stroke-linejoin:round;">
<polyline fill="none;"
points="55000,32000
54000,32000
54500,33000
55000,32000
" /> 
</g>
<g style="fill:#840000; fill-opacity:0.0; 
stroke:#840000; stroke-width:60; stroke-opacity:1; 
stroke-linecap:round; stroke-linejoin:round;">
<polyline fill="none;"
points="54800,33700
55400,34300
55400,34000
55400,34300
55100,34300
" /> 
<polyline fill="none;"
points="54800,33200
55400,33800
55400,33500
55400,33800
55100,33800
" /> 
<path d="M54500 33000
L54500 34000
" />
<path d="M54380 33360
L54380 33640
" />
<path d="M54380 33500
L53880 33500
L53950 33550
L54000 33600
L54020 33640
" />
<path d="M54500 32000
L54500 31000
" />
<path d="M53920 31640
L53900 31620
L53880 31570
L53880 31450
L53900 31410
L53920 31380
L53970 31360
L54020 31360
L54090 31380
L54380 31670
L54380 31360
" />
</g>
<g style="fill:#008484; fill-opacity:0.0; 
stroke:#008484; stroke-width:60; stroke-opacity:1; 
stroke-linecap:round; stroke-linejoin:round;">
<path d="M53760 32870
L53260 32870
L53260 32750
L53280 32680
L53330 32630
L53380 32610
L53470 32590
L53540 32590
L53640 32610
L53680 32630
L53730 32680
L53760 32750
L53760 32870
" />
<path d="M53760 32110
L53760 32390
" />
<path d="M53760 32250
L53260 32250
L53330 32300
L53380 32350
L53400 32390
" />
<path d="M55760 32800
L55760 33040
L55260 33040
" />
<path d="M55490 32640
L55490 32470
" />
<path d="M55760 32400
L55760 32640
L55260 32640
L55260 32400
" />
<path d="M55760 32190
L55260 32190
L55260 32070
L55280 32000
L55330 31950
L55380 31930
L55470 31910
L55540 31910
L55640 31930
L55680 31950
L55730 32000
L55760 32070
L55760 32190
" />
</g>
<g style="fill:#008400; fill-opacity:0.0; 
stroke:#008400; stroke-width:60; stroke-opacity:1; 
stroke-linecap:round; stroke-linejoin:round;">
<path d="M53000 30000
L54500 30000
" />
<path d="M54500 30000
L54500 31000
" />
</g>
<g style="fill:#008400; fill-opacity:0.0; 
stroke:#008400; stroke-width:0; stroke-opacity:1; 
stroke-linecap:round; stroke-linejoin:round;">
</g>
<g style="fill:#840000; fill-opacity:0.0; 
stroke:#840000; stroke-width:0; stroke-opacity:1; 
stroke-linecap:round; stroke-linejoin:round;">
</g>
<g style="fill:#840000; fill-opacity:0.0; 
stroke:#840000; stroke-width:60; stroke-opacity:1; 
stroke-linecap:round; stroke-linejoin:round;">
<polyline fill="none;"
points="54500,35000
54500,35500
55000,35500
54500,36000
54000,35500
54500,35500
" /> 
</g>
<g style="fill:#008484; fill-opacity:0.0; 
stroke:#008484; stroke-width:60; stroke-opacity:1; 
stroke-linecap:round; stroke-linejoin:round;">
<path d="M54120 36280
L54070 36260
L54000 36260
L53930 36280
L53880 36330
L53860 36380
L53840 36470
L53840 36540
L53860 36640
L53880 36680
L53930 36730
L54000 36760
L54050 36760
L54120 36730
L54140 36710
L54140 36540
L54050 36540
" />
<path d="M54360 36760
L54360 36260
L54640 36760
L54640 36260
" />
<path d="M54880 36760
L54880 36260
L55000 36260
L55070 36280
L55120 36330
L55140 36380
L55160 36470
L55160 36540
L55140 36640
L55120 36680
L55070 36730
L55000 36760
L54880 36760
" />
</g>
<g style="fill:#008400; fill-opacity:0.0; 
stroke:#008400; stroke-width:60; stroke-opacity:1; 
stroke-linecap:round; stroke-linejoin:round;">
<path d="M54500 34000
L54500 35000
" />
</g>
<g style="fill:#008400; fill-opacity:0.0; 
stroke:#008400; stroke-width:0; stroke-opacity:1; 
stroke-linecap:round; stroke-linejoin:round;">
</g>
<g style="fill:#840000; fill-opacity:0.0; 
stroke:#840000; stroke-width:0; stroke-opacity:1; 
stroke-linecap:round; stroke-linejoin:round;">
</g>
<g style="fill:#840000; fill-opacity:1.0; 
stroke:#840000; stroke-width:60; stroke-opacity:1; 
stroke-linecap:round; stroke-linejoin:round;">
<rect x="18700" y="26050" width="1600" height="100" rx="0" />
<rect x="18700" y="24800" width="1600" height="100" rx="0" />
<rect x="18980" y="26280" width="1020" height="200" rx="0" />
<rect x="18980" y="25030" width="1020" height="200" rx="0" />
</g>
<g style="fill:#840000; fill-opacity:0.0; 
stroke:#840000; stroke-width:60; stroke-opacity:1; 
stroke-linecap:round; stroke-linejoin:round;">
<polyline fill="none;"
points="19500,26100
19500,26000
" /> 
<polyline fill="none;"
points="19500,25900
19500,25800
" /> 
<polyline fill="none;"
points="19500,25700
19500,25600
" /> 
<polyline fill="none;"
points="19500,25500
19500,25400
" /> 
<polyline fill="none;"
points="19500,25300
19500,25200
" /> 
<polyline fill="none;"
points="19500,24800
19500,24500
" /> 
</g>
<g style="fill:#840000; fill-opacity:0.0; 
stroke:#840000; stroke-width:100; stroke-opacity:1; 
stroke-linecap:round; stroke-linejoin:round;">
<polyline fill="none;"
points="19600,24450
20000,24450
" /> 
<polyline fill="none;"
points="19800,24250
19800,24650
" /> 
</g>
<g style="fill:#840000; fill-opacity:0.0; 
stroke:#840000; stroke-width:60; stroke-opacity:1; 
stroke-linecap:round; stroke-linejoin:round;">
<path d="M19500 24500
L19500 23500
" />
<path d="M19500 26500
L19500 27500
" />
</g>
<g style="fill:#008484; fill-opacity:0.0; 
stroke:#008484; stroke-width:60; stroke-opacity:1; 
stroke-linecap:round; stroke-linejoin:round;">
<path d="M20790 24490
L20860 24520
L20880 24540
L20900 24590
L20900 24660
L20880 24710
L20860 24730
L20810 24760
L20620 24760
L20620 24260
L20790 24260
L20830 24280
L20860 24300
L20880 24350
L20880 24400
L20860 24450
L20830 24470
L20790 24490
L20620 24490
" />
<path d="M21050 24260
L21330 24260
" />
<path d="M21190 24760
L21190 24260
" />
<path d="M21760 24760
L21480 24760
" />
<path d="M21620 24760
L21620 24260
L21570 24330
L21520 24380
L21480 24400
" />
<path d="M20790 25490
L20860 25520
L20880 25540
L20900 25590
L20900 25660
L20880 25710
L20860 25730
L20810 25760
L20620 25760
L20620 25260
L20790 25260
L20830 25280
L20860 25300
L20880 25350
L20880 25400
L20860 25450
L20830 25470
L20790 25490
L20620 25490
" />
<path d="M21330 25760
L21330 25490
L21310 25450
L21260 25420
L21170 25420
L21120 25450
" />
<path d="M21330 25730
L21290 25760
L21170 25760
L21120 25730
L21100 25680
L21100 25640
L21120 25590
L21170 25570
L21290 25570
L21330 25540
" />
<path d="M21500 25420
L21690 25420
" />
<path d="M21570 25260
L21570 25680
L21590 25730
L21640 25760
L21690 25760
" />
<path d="M21790 25420
L21980 25420
" />
<path d="M21860 25260
L21860 25680
L21880 25730
L21930 25760
L21980 25760
" />
<path d="M22340 25730
L22290 25760
L22200 25760
L22150 25730
L22130 25680
L22130 25490
L22150 25450
L22200 25420
L22290 25420
L22340 25450
L22360 25490
L22360 25540
L22130 25590
" />
<path d="M22580 25760
L22580 25420
" />
<path d="M22580 25520
L22600 25470
L22630 25450
L22670 25420
L22720 25420
" />
<path d="M22840 25420
L22960 25760
" />
<path d="M23080 25420
L22960 25760
L22910 25880
L22890 25900
L22840 25920
" />
</g>
<g style="fill:#008484; fill-opacity:0.0; 
stroke:#008484; stroke-width:0; stroke-opacity:1; 
stroke-linecap:round; stroke-linejoin:round;">
</g>
<g style="fill:#840000; fill-opacity:0.0; 
stroke:#840000; stroke-width:0; stroke-opacity:1; 
stroke-linecap:round; stroke-linejoin:round;">
</g>
<g style="fill:#840000; fill-opacity:0.0; 
stroke:#840000; stroke-width:60; stroke-opacity:1; 
stroke-linecap:round; stroke-linejoin:round;">
<circle cx="19500" cy="21250" r="250" /> 
<polyline fill="none;"
points="19500,22000
19500,21500
" /> 
</g>
<g style="fill:#008484; fill-opacity:0.0; 
stroke:#008484; stroke-width:60; stroke-opacity:1; 
stroke-linecap:round; stroke-linejoin:round;">
<path d="M18840 20260
L19000 20760
L19170 20260
" />
<path d="M19620 20710
L19600 20730
L19530 20760
L19480 20760
L19410 20730
L19360 20680
L19340 20640
L19320 20540
L19320 20470
L19340 20380
L19360 20330
L19410 20280
L19480 20260
L19530 20260
L19600 20280
L19620 20300
" />
<path d="M20120 20710
L20100 20730
L20030 20760
L19980 20760
L19910 20730
L19860 20680
L19840 20640
L19820 20540
L19820 20470
L19840 20380
L19860 20330
L19910 20280
L19980 20260
L20030 20260
L20100 20280
L20120 20300
" />
</g>
<g style="fill:#008400; fill-opacity:0.0; 
stroke:#008400; stroke-width:60; stroke-opacity:1; 
stroke-linecap:round; stroke-linejoin:round;">
<path d="M19500 22000
L19500 23500
" />
</g>
<g style="fill:#008400; fill-opacity:0.0; 
stroke:#008400; stroke-width:0; stroke-opacity:1; 
stroke-linecap:round; stroke-linejoin:round;">
</g>
<g style="fill:#840000; fill-opacity:0.0; 
stroke:#840000; stroke-width:0; stroke-opacity:1; 
stroke-linecap:round; stroke-linejoin:round;">
</g>
<g style="fill:#840000; fill-opacity:0.0; 
stroke:#840000; stroke-width:60; stroke-opacity:1; 
stroke-linecap:round; stroke-linejoin:round;">
<polyline fill="none;"
points="19500,29500
19500,30000
20000,30000
19500,30500
19000,30000
19500,30000
" /> 
</g>
<g style="fill:#008484; fill-opacity:0.0; 
stroke:#008484; stroke-width:60; stroke-opacity:1; 
stroke-linecap:round; stroke-linejoin:round;">
<path d="M19120 30780
L19070 30760
L19000 30760
L18930 30780
L18880 30830
L18860 30880
L18840 30970
L18840 31040
L18860 31140
L18880 31180
L18930 31230
L19000 31260
L19050 31260
L19120 31230
L19140 31210
L19140 31040
L19050 31040
" />
<path d="M19360 31260
L19360 30760
L19640 31260
L19640 30760
" />
<path d="M19880 31260
L19880 30760
L20000 30760
L20070 30780
L20120 30830
L20140 30880
L20160 30970
L20160 31040
L20140 31140
L20120 31180
L20070 31230
L20000 31260
L19880 31260
" />
</g>
<g style="fill:#008400; fill-opacity:0.0; 
stroke:#008400; stroke-width:60; stroke-opacity:1; 
stroke-linecap:round; stroke-linejoin:round;">
<path d="M19500 27500
L19500 29500
" />
<path d="M33000 31000
L33000 27500
" />
</g>
<g style="fill:#008400; fill-opacity:0.0; 
stroke:#008400; stroke-width:0; stroke-opacity:1; 
stroke-linecap:round; stroke-linejoin:round;">
</g>
<g style="fill:#008400; fill-opacity:1.0; 
stroke:#008400; stroke-width:100; stroke-opacity:1; 
stroke-linecap:round; stroke-linejoin:round;">
<circle cx="33000" cy="31000" r="200" /> 
</g>
<g style="fill:#008400; fill-opacity:1.0; 
stroke:#008400; stroke-width:60; stroke-opacity:1; 
stroke-linecap:round; stroke-linejoin:round;">
</g>
<g style="fill:#008400; fill-opacity:0.0; 
stroke:#008400; stroke-width:60; stroke-opacity:1; 
stroke-linecap:round; stroke-linejoin:round;">
<path d="M38000 30000
L37000 30000
" />
<path d="M37000 30000
L37000 31000
" />
</g>
<g style="fill:#008400; fill-opacity:0.0; 
stroke:#008400; stroke-width:0; stroke-opacity:1; 
stroke-linecap:round; stroke-linejoin:round;">
</g>
<g style="fill:#008400; fill-opacity:1.0; 
stroke:#008400; stroke-width:100; stroke-opacity:1; 
stroke-linecap:round; stroke-linejoin:round;">
<circle cx="37000" cy="31000" r="200" /> 
</g> 
</svg>
